<svg viewBox="0 0 893.6666259765625 400" xmlns="http://www.w3.org/2000/svg"><g><g><g><g><g><line x1="61.77000045776367" y1="378" x2="56.77000045776367" y2="378" style="visibility: inherit;" fill="rgb(0, 0, 0)" stroke="rgb(204, 204, 204)" stroke-width="1px"></line><line x1="61.77000045776367" y1="336" x2="56.77000045776367" y2="336" style="visibility: inherit;" fill="rgb(0, 0, 0)" stroke="rgb(204, 204, 204)" stroke-width="1px"></line><line x1="61.77000045776367" y1="294" x2="56.77000045776367" y2="294" style="visibility: inherit;" fill="rgb(0, 0, 0)" stroke="rgb(204, 204, 204)" stroke-width="1px"></line><line x1="61.77000045776367" y1="252" x2="56.77000045776367" y2="252" style="visibility: inherit;" fill="rgb(0, 0, 0)" stroke="rgb(204, 204, 204)" stroke-width="1px"></line><line x1="61.77000045776367" y1="210" x2="56.77000045776367" y2="210" style="visibility: inherit;" fill="rgb(0, 0, 0)" stroke="rgb(204, 204, 204)" stroke-width="1px"></line><line x1="61.77000045776367" y1="168" x2="56.77000045776367" y2="168" style="visibility: inherit;" fill="rgb(0, 0, 0)" stroke="rgb(204, 204, 204)" stroke-width="1px"></line><line x1="61.77000045776367" y1="126" x2="56.77000045776367" y2="126" style="visibility: inherit;" fill="rgb(0, 0, 0)" stroke="rgb(204, 204, 204)" stroke-width="1px"></line><line x1="61.77000045776367" y1="84" x2="56.77000045776367" y2="84" style="visibility: inherit;" fill="rgb(0, 0, 0)" stroke="rgb(204, 204, 204)" stroke-width="1px"></line><line x1="61.77000045776367" y1="42.000000000000966" x2="56.77000045776367" y2="42.000000000000966" style="visibility: inherit;" fill="rgb(0, 0, 0)" stroke="rgb(204, 204, 204)" stroke-width="1px"></line><line x1="61.77000045776367" y1="0" x2="56.77000045776367" y2="0" style="visibility: inherit;" fill="rgb(0, 0, 0)" stroke="rgb(204, 204, 204)" stroke-width="1px"></line></g><g transform="translate(51.77000045776367, 0)"><text style="text-anchor: end; visibility: hidden; font-family: &quot;Helvetica Neue&quot;, sans-serif; font-size: 12px; font-weight: 200;" x="0" y="378" dx="0em" dy="0.3em" fill="rgb(50, 49, 63)" stroke="none" stroke-width="1px">0.965</text><text style="text-anchor: end; visibility: inherit; font-family: &quot;Helvetica Neue&quot;, sans-serif; font-size: 12px; font-weight: 200;" x="0" y="336" dx="0em" dy="0.3em" fill="rgb(50, 49, 63)" stroke="none" stroke-width="1px">0.97</text><text style="text-anchor: end; visibility: inherit; font-family: &quot;Helvetica Neue&quot;, sans-serif; font-size: 12px; font-weight: 200;" x="0" y="294" dx="0em" dy="0.3em" fill="rgb(50, 49, 63)" stroke="none" stroke-width="1px">0.975</text><text style="text-anchor: end; visibility: inherit; font-family: &quot;Helvetica Neue&quot;, sans-serif; font-size: 12px; font-weight: 200;" x="0" y="252" dx="0em" dy="0.3em" fill="rgb(50, 49, 63)" stroke="none" stroke-width="1px">0.98</text><text style="text-anchor: end; visibility: inherit; font-family: &quot;Helvetica Neue&quot;, sans-serif; font-size: 12px; font-weight: 200;" x="0" y="210" dx="0em" dy="0.3em" fill="rgb(50, 49, 63)" stroke="none" stroke-width="1px">0.985</text><text style="text-anchor: end; visibility: inherit; font-family: &quot;Helvetica Neue&quot;, sans-serif; font-size: 12px; font-weight: 200;" x="0" y="168" dx="0em" dy="0.3em" fill="rgb(50, 49, 63)" stroke="none" stroke-width="1px">0.99</text><text style="text-anchor: end; visibility: inherit; font-family: &quot;Helvetica Neue&quot;, sans-serif; font-size: 12px; font-weight: 200;" x="0" y="126" dx="0em" dy="0.3em" fill="rgb(50, 49, 63)" stroke="none" stroke-width="1px">0.995</text><text style="text-anchor: end; visibility: inherit; font-family: &quot;Helvetica Neue&quot;, sans-serif; font-size: 12px; font-weight: 200;" x="0" y="84" dx="0em" dy="0.3em" fill="rgb(50, 49, 63)" stroke="none" stroke-width="1px">1</text><text style="text-anchor: end; visibility: inherit; font-family: &quot;Helvetica Neue&quot;, sans-serif; font-size: 12px; font-weight: 200;" x="0" y="42.000000000000966" dx="0em" dy="0.3em" fill="rgb(50, 49, 63)" stroke="none" stroke-width="1px">1</text><text style="text-anchor: end; visibility: hidden; font-family: &quot;Helvetica Neue&quot;, sans-serif; font-size: 12px; font-weight: 200;" x="0" y="0" dx="0em" dy="0.3em" fill="rgb(50, 49, 63)" stroke="none" stroke-width="1px">1.01</text></g><line x1="61.77000045776367" y1="0" x2="61.77000045776367" y2="378" fill="rgb(0, 0, 0)" stroke="rgb(204, 204, 204)" stroke-width="1px"></line></g></g><g transform="translate(61, 0)" clip-path="url(#clip_0)"><clipPath id="clip_0"><rect width="831" height="378"></rect></clipPath><g><g><g><line x1="0" y1="0" x2="0" y2="378" fill="rgb(0, 0, 0)" stroke="rgb(60, 60, 60)" stroke-width="1px" opacity="0.25"></line><line x1="63.992076887864336" y1="0" x2="63.992076887864336" y2="378" fill="rgb(0, 0, 0)" stroke="rgb(60, 60, 60)" stroke-width="1px" opacity="0.25"></line><line x1="127.98415377572867" y1="0" x2="127.98415377572867" y2="378" fill="rgb(0, 0, 0)" stroke="rgb(60, 60, 60)" stroke-width="1px" opacity="0.25"></line><line x1="191.97623066359301" y1="0" x2="191.97623066359301" y2="378" fill="rgb(0, 0, 0)" stroke="rgb(60, 60, 60)" stroke-width="1px" opacity="0.25"></line><line x1="255.96830755145734" y1="0" x2="255.96830755145734" y2="378" fill="rgb(0, 0, 0)" stroke="rgb(60, 60, 60)" stroke-width="1px" opacity="0.25"></line><line x1="319.9603844393217" y1="0" x2="319.9603844393217" y2="378" fill="rgb(0, 0, 0)" stroke="rgb(60, 60, 60)" stroke-width="1px" opacity="0.25"></line><line x1="383.95246132718603" y1="0" x2="383.95246132718603" y2="378" fill="rgb(0, 0, 0)" stroke="rgb(60, 60, 60)" stroke-width="1px" opacity="0.25"></line><line x1="447.94453821505033" y1="0" x2="447.94453821505033" y2="378" fill="rgb(0, 0, 0)" stroke="rgb(60, 60, 60)" stroke-width="1px" opacity="0.25"></line><line x1="511.9366151029147" y1="0" x2="511.9366151029147" y2="378" fill="rgb(0, 0, 0)" stroke="rgb(60, 60, 60)" stroke-width="1px" opacity="0.25"></line><line x1="575.928691990779" y1="0" x2="575.928691990779" y2="378" fill="rgb(0, 0, 0)" stroke="rgb(60, 60, 60)" stroke-width="1px" opacity="0.25"></line><line x1="639.9207688786433" y1="0" x2="639.9207688786433" y2="378" fill="rgb(0, 0, 0)" stroke="rgb(60, 60, 60)" stroke-width="1px" opacity="0.25"></line><line x1="703.9128457665076" y1="0" x2="703.9128457665076" y2="378" fill="rgb(0, 0, 0)" stroke="rgb(60, 60, 60)" stroke-width="1px" opacity="0.25"></line><line x1="767.9049226543721" y1="0" x2="767.9049226543721" y2="378" fill="rgb(0, 0, 0)" stroke="rgb(60, 60, 60)" stroke-width="1px" opacity="0.25"></line><line x1="831.8969995422364" y1="0" x2="831.8969995422364" y2="378" fill="rgb(0, 0, 0)" stroke="rgb(60, 60, 60)" stroke-width="1px" opacity="0.25"></line></g><g><line x1="0" y1="378" x2="831.8969995422364" y2="378" fill="rgb(0, 0, 0)" stroke="rgb(60, 60, 60)" stroke-width="1px" opacity="0.25"></line><line x1="0" y1="336" x2="831.8969995422364" y2="336" fill="rgb(0, 0, 0)" stroke="rgb(60, 60, 60)" stroke-width="1px" opacity="0.25"></line><line x1="0" y1="294" x2="831.8969995422364" y2="294" fill="rgb(0, 0, 0)" stroke="rgb(60, 60, 60)" stroke-width="1px" opacity="0.25"></line><line x1="0" y1="252" x2="831.8969995422364" y2="252" fill="rgb(0, 0, 0)" stroke="rgb(60, 60, 60)" stroke-width="1px" opacity="0.25"></line><line x1="0" y1="210" x2="831.8969995422364" y2="210" fill="rgb(0, 0, 0)" stroke="rgb(60, 60, 60)" stroke-width="1px" opacity="0.25"></line><line x1="0" y1="168" x2="831.8969995422364" y2="168" fill="rgb(0, 0, 0)" stroke="rgb(60, 60, 60)" stroke-width="1px" opacity="0.25"></line><line x1="0" y1="126" x2="831.8969995422364" y2="126" fill="rgb(0, 0, 0)" stroke="rgb(60, 60, 60)" stroke-width="1px" opacity="0.25"></line><line x1="0" y1="84" x2="831.8969995422364" y2="84" fill="rgb(0, 0, 0)" stroke="rgb(60, 60, 60)" stroke-width="1px" opacity="0.25"></line><line x1="0" y1="42.000000000000966" x2="831.8969995422364" y2="42.000000000000966" fill="rgb(0, 0, 0)" stroke="rgb(60, 60, 60)" stroke-width="1px" opacity="0.25"></line><line x1="0" y1="0" x2="831.8969995422364" y2="0" fill="rgb(0, 0, 0)" stroke="rgb(60, 60, 60)" stroke-width="1px" opacity="0.25"></line></g></g></g><g><g><line x1="0" y1="8483.999999999993" x2="831.8969995422364" y2="8483.999999999993" fill="rgb(0, 0, 0)" stroke="rgb(153, 153, 153)" stroke-width="1.5px"></line></g></g><g><g><line x1="63.992076887864336" y1="0" x2="63.992076887864336" y2="378" fill="rgb(0, 0, 0)" stroke="rgb(153, 153, 153)" stroke-width="1.5px"></line></g></g><g><g><g><g><g><path style="fill: none;" stroke="rgb(0, 119, 187)" stroke-width="2px" d="M86.38930379861685,400.1876241898759L89.58890764301007,373.82984349727684L92.7885114874033,340.8454428015989L95.98811533179651,336.9636942102447L99.18771917618973,315.37997276048446L103.02724378946158,326.7727184102192L106.22684763385479,327.34445055241156L109.42645147824803,309.43256951980663L112.62605532264122,283.80744876179955L115.82565916703446,278.0428180432749L119.02526301142765,265.4635682167586L122.22486685582089,260.3176798830726L125.4244707002141,263.71086436420273L128.6240745446073,255.66620366473325L131.82367838900052,248.67961883071501L135.02328223339376,267.7680445161954L138.86280684666562,243.22063193585396L142.0624106910588,239.29240655333155L145.26201453545204,234.05536907590928L148.46161837984525,234.03319279748766L151.6612222242385,241.2198589470612L154.8608260686317,246.97200793563266L158.0604299130249,241.78317423929136L161.2600337574181,232.4298111519377L164.45963760181135,233.297983852218L167.65924144620456,228.77885174976407L170.85884529059777,238.0672474064825L174.69836990386963,228.52037861164465L177.89797374826287,222.5521318495457L181.09757759265605,214.65132526236542L184.2971814370493,214.7107509835919L187.4967852814425,208.7464693363193L190.69638912583574,203.72794750858006L193.89599297022892,216.55671633723836L197.09559681462216,209.61412318056284L200.29520065901536,208.0885476075545L203.4948045034086,214.85321783040112L206.6944083478018,223.47200417080322L210.53393296107367,218.08315443673584L213.73353680546688,214.60991921211865L216.9331406498601,208.44604491082873L220.13274449425333,210.74765738783267L223.33234833864654,208.2886170919683L226.53195218303975,227.933235715544L229.73155602743296,217.63986200728004L232.9311598718262,224.66393963480823L236.1307637162194,223.35829992284985L239.33036756061261,218.9750339698198L242.52997140500582,221.62503503033136L246.3694960182777,222.97511028211423L249.5690998626709,223.06497873640808L252.7687037070641,217.5990137921359L255.96830755145734,220.31937188306958L259.1679113958506,223.87159062862173L262.3675152402438,229.60300427341454L265.567119084637,213.12183712520536L268.7667229290302,210.19317597507379L271.9663267734234,212.75583783602116L275.1659306178166,213.33353314289795L278.36553446220984,212.24019747668035L282.2050590754817,206.3040351730212L285.4046629198749,215.4623886025927L288.6042667642682,205.35744414788297L291.8038706086614,201.93445779121885L295.0034744530546,198.92076416752874L298.2030782974478,199.2724772688281L301.402682141841,202.60353648641853L304.6022859862342,198.36210930335048L307.80188983062743,205.89732348911474L311.00149367502064,204.41831467147136L314.2010975194139,207.61104281899642L318.0406221326857,198.96655817125622L321.240225977079,196.17992231425197L324.4398298214722,206.50801518664665L327.6394336658654,203.34477683964872L330.8390375102586,198.8068535152884L334.0386413546518,196.56415056132107L337.2382451990451,201.21846584643652L340.4378490434383,202.81102755168567L343.63745288783144,196.08654901086996L346.83705673222465,199.01190102517484L350.0366605766179,205.08717105638885L353.8761851898898,204.41227425248542L357.075789034283,206.40739110178382L360.2753928786762,213.12434722820947L363.4749967230694,205.15464678907426L366.6746005674626,216.2127084225656L369.8742044118559,202.92753006757758L373.0738082562491,202.39651323402796L376.2734121006423,211.67792258885405L379.4730159450355,207.16669770614442L382.6726197894287,203.02000992617664L385.87222363382193,197.17204051686244L389.7117482470938,203.7431290952729L392.911352091487,200.72594337513226L396.1109559358802,202.75563972503014L399.3105597802734,197.7333948213456L402.5101636246667,211.0399808167577L405.7097674690599,208.22408576483465L408.9093713134531,204.1344938020404L412.1089751578463,203.84066789987637L415.3085790022396,201.02439204241583L418.50818284663274,197.65454802147033L421.70778669102594,202.35275536317494L425.5473113042978,195.81158569776315L428.746915148691,190.92698208882348L431.9465189930843,187.27624349828938L435.1461228374775,186.04570215366164L438.3457266818707,185.30737734688518L441.5453305262639,183.18450422795493L444.7449343706571,182.87068216629027L447.94453821505033,182.44246354476923L451.14414205944354,182.90550879702715L454.34374590383675,182.46335952321175L457.54334974823,182.6779207279653L461.3828743615019,180.8866535598262L464.5824782058951,179.81189325894238L467.7820820502883,178.44706065324118L470.9816858946815,178.82818855564113L474.18128973907466,179.05686529708112L477.380893583468,178.9541459574238L480.5804974278612,178.17253792845779L483.7801012722544,178.4235495362487L486.9797051166476,178.57415650092472L490.1793089610408,179.38449710490016L493.378912805434,180.3507525079348L497.21843741870595,179.49035262780734L500.41804126309916,179.4541637403805L503.61764510749236,179.19252502340396L506.8172489518855,178.31556536804626L510.0168527962787,178.74929138452455L513.2164566406719,178.52947595376105L516.4160604850651,178.63771235143065L519.6156643294584,179.4226306152048L522.8152681738517,178.69355410764882L526.0148720182449,179.93618670958418L529.2144758626381,179.9617898455747L533.0540004759099,179.9771517271688L536.2536043203031,178.78634139030459L539.4532081646963,177.83172953205818L542.6528120090895,177.9789388422817L545.8524158534829,178.78744112519323L549.0520196978761,178.79249145429014L552.2516235422693,179.27557269239807L555.4512273866625,180.52532324495596L558.6508312310557,179.8352207261476L561.8504350754489,180.14113564003384L565.050038919842,180.0847592038449L568.8895635331139,179.0908312608325L572.0891673775071,178.4944744950254L575.2887712219003,177.89673505101985L578.4883750662935,178.73811885043628L581.6879789106868,179.24294913008595L584.88758275508,178.8256706010984L588.0871865994732,178.57530348370588L591.2867904438665,179.14525991004734L594.4863942882597,179.4872337658528L597.6859981326529,179.2123670386868L600.8856019770461,179.52749804303664L604.7251265903179,179.4764509895184L607.9247304347111,179.2058973728864L611.1243342791045,179.0435652029066L614.3239381234977,179.1860912854404L617.5235419678909,179.0316815504392L620.7231458122841,178.93903570943792L623.9227496566773,178.88344820483752L627.1223535010705,178.85009570207765L630.3219573454637,178.8300842004214L633.5215611898569,178.81807729942682L636.7211650342501,179.05079854335253L640.560689647522,178.95050590518687L643.7602934919153,178.8903303222865L646.9598973363085,178.8542249725467L650.1595011807017,178.83256176270203L653.3591050250948,178.81956383679525L656.558708869488,178.81176508125228L659.7583127138813,178.80708582792616L662.9579165582745,178.80427827593044L666.1575204026677,178.8025937447338L669.3571242470609,178.80158302601467L672.5567280914541,178.80097659478358L676.396252704726,178.80061273604414L679.5958565491193,178.800394420802L682.7954603935125,178.80026343165636L685.9950642379057,178.80018483816784L689.1946680822989,178.8001376820755L692.3942719266921,178.80010938842005L695.5938757710853,178.8000924122268L698.7934796154785,178.8000822265116L701.9930834598717,178.8000761150821L705.1926873042651,178.8000724482233L708.3922911486583,178.800070248108L712.2318157619301,178.80006892803993L715.4314196063233,178.80006813599908L718.6310234507165,178.80006766077497L721.8306272951097,178.80006737564014L725.0302311395029,179.03999258908087L728.2298349838961,178.9440223326235L731.4294388282893,179.12636556327072L734.6290426726825,178.9958461171368L737.8286465170758,178.91753444945613L741.028250361469,179.11047283337047L744.2278542058622,179.22623586371853L748.0673788191341,179.05576829740684L751.2669826635273,179.1934131421405L754.4665865079205,179.03607466446005L757.6661903523137,179.18159696237282L760.8657941967069,179.5090359972477L764.0653980411001,179.46537376204486L767.2650018854933,179.439176420923L770.4646057298866,179.4234580162506L773.6642095742799,179.65415262957416L776.8638134186731,179.79256939756905L780.0634172630663,179.87561945836526" fill="none"></path></g><g><path style="fill: none;" stroke="rgb(255, 112, 67)" stroke-width="2px" d="M86.38930379861685,383.38961832953237L89.58890764301007,354.7120710889198L92.7885114874033,319.1487566601053L95.98811533179651,311.0201084329101L99.18771917618973,287.62713883427176L103.02724378946158,290.2419766065278L106.22684763385479,294.2104253383078L109.42645147824803,275.2114549381508L112.62605532264122,253.55666465536214L115.82565916703446,242.13086471339219L119.02526301142765,228.976237257404L122.22486685582089,230.38584317081853L125.4244707002141,234.95178687930104L128.6240745446073,222.2706988952364L131.82367838900052,209.38206610423578L135.02328223339376,220.9094412840568L138.86280684666562,201.30559372367708L142.0624106910588,195.78327628012917L145.26201453545204,191.14990864996727L148.46161837984525,191.25000738770848L151.6612222242385,193.83008672418916L154.8608260686317,198.25804010525667L158.0604299130249,190.71477344748484L161.2600337574181,185.1089504909316L164.45963760181135,181.3252876240984L167.65924144620456,174.37514295332724L170.85884529059777,177.76510973758369L174.69836990386963,169.35913083303143L177.89797374826287,167.73538165488918L181.09757759265605,158.1212147030952L184.2971814370493,158.41273317241578L187.4967852814425,153.36756481147418L190.69638912583574,147.8204461773834L193.89599297022892,157.99228374175624L197.09559681462216,150.83540319829874L200.29520065901536,145.5811727941362L203.4948045034086,154.18878355872775L206.6944083478018,156.95329508383534L210.53393296107367,153.0919157095687L213.73353680546688,146.8751990927128L216.9331406498601,143.26513181511177L220.13274449425333,146.7990216398051L223.33234833864654,144.83942236801312L226.53195218303975,161.90359963371313L229.73155602743296,152.94206708304122L232.9311598718262,152.00516906757056L236.1307637162194,151.3230675660289L239.33036756061261,146.71391080633572L242.52997140500582,157.62836937199248L246.3694960182777,158.65695822292707L249.5690998626709,151.71425893338798L252.7687037070641,143.7086315776836L255.96830755145734,147.18508418953024L259.1679113958506,151.43108530375812L262.3675152402438,149.53866445740113L265.567119084637,135.38315427136507L268.7667229290302,131.32986967463523L271.9663267734234,132.85786939084014L275.1659306178166,137.43463282835228L278.36553446220984,135.08077443272896L282.2050590754817,126.708420256561L285.4046629198749,134.9449908136047L288.6042667642682,125.66704827539485L291.8038706086614,121.54023560280973L295.0034744530546,119.12422948119234L298.2030782974478,117.91455119274355L301.402682141841,122.10881677521624L304.6022859862342,118.56535758527224L307.80188983062743,129.99927200050436L311.00149367502064,131.5195785353858L314.2010975194139,129.13168692530914L318.0406221326857,122.11898446048318L321.240225977079,119.05130896547348L324.4398298214722,130.23076134669074L327.6394336658654,124.09841927139354L330.8390375102586,120.11900715975958L334.0386413546518,118.3914551076233L337.2382451990451,116.03493371826124L340.4378490434383,119.78101882470634L343.63745288783144,113.68855910976481L346.83705673222465,116.33322747635731L350.0366605766179,125.95993213705876L353.8761851898898,121.05587070496489L357.075789034283,121.65343476123559L360.2753928786762,124.83199768535479L363.4749967230694,117.85929268164688L366.6746005674626,134.135617265483L369.8742044118559,118.88127995096534L373.0738082562491,116.44879131652613L376.2734121006423,127.28917911730781L379.4730159450355,119.8735337917962L382.6726197894287,116.56409258037542L385.87222363382193,116.13854366773205L389.7117482470938,116.54310926338354L392.911352091487,115.70578384721432L396.1109559358802,116.04352798655162L399.3105597802734,110.42608131524656L402.5101636246667,122.83561399910866L405.7097674690599,117.861289664114L408.9093713134531,111.09676876306764L412.1089751578463,109.73811802053604L415.3085790022396,106.46279116144257L418.50818284663274,106.5976431111718L421.70778669102594,109.91854833008176L425.5473113042978,105.85107292199979L428.746915148691,102.1506790010028L431.9465189930843,99.15038474129972L435.1461228374775,96.57015027837417L438.3457266818707,94.30203317544749L441.5453305262639,92.46131214464839L444.7449343706571,90.87682848551913L447.94453821505033,89.74609411584703L451.14414205944354,89.42774184243359L454.34374590383675,89.05668630419063L457.54334974823,88.83405298124524L461.3828743615019,88.34038463908928L464.5824782058951,87.74417676734106L467.7820820502883,87.1465266597695L470.9816858946815,86.72785511329351L474.18128973907466,86.59661487766795L477.380893583468,86.57795221822636L480.5804974278612,86.20686654578009L483.7801012722544,86.22414052683274L486.9797051166476,86.47443029998601L490.1793089610408,86.56472295355115L493.378912805434,86.61889854569102L497.21843741870595,86.23143434225892L500.41804126309916,85.93887433826569L503.61764510749236,85.82341981780354L506.8172489518855,85.75414710552604L510.0168527962787,85.71258347815996L513.2164566406719,85.44751964561215L516.4160604850651,85.34856282801599L519.6156643294584,85.46923291165331L522.8152681738517,85.54163496183571L526.0148720182449,85.64495740227198L529.2144758626381,85.6470696562069L533.0540004759099,85.5281740447005L536.2536043203031,85.45683667779724L539.4532081646963,85.47411573958851L542.6528120090895,85.36452048440162L545.8524158534829,85.238681849356L549.0520196978761,85.22326015026226L552.2516235422693,85.0940444385464L555.4512273866625,85.07639622184291L558.6508312310557,84.94584459956008L561.8504350754489,84.9275951081247L565.050038919842,84.9166454132635L568.8895635331139,84.84999411441356L572.0891673775071,84.74992185316927L575.2887712219003,84.86992267061771L578.4883750662935,84.76187898689216L581.6879789106868,84.81721574052318L584.88758275508,84.79033631076976L588.0871865994732,84.5941644787224L591.2867904438665,84.53654286142762L594.4863942882597,84.50196989105086L597.6859981326529,84.48122610882473L600.8856019770461,84.40869835755501L604.7251265903179,84.36518170679375L607.9247304347111,84.33907171633643L611.1243342791045,84.3234057220626L614.3239381234977,84.31400612549834L617.5235419678909,84.30836636755993L620.7231458122841,84.3049825127963L623.9227496566773,84.24307098961134L627.1223535010705,84.20592407570024L630.3219573454637,84.18363592735415L633.5215611898569,84.1702630383457L636.7211650342501,84.16223930494124L640.560689647522,84.15742506489829L643.7602934919153,84.15453652087223L646.9598973363085,84.1528033944573L650.1595011807017,84.1517635186076L653.3591050250948,84.15113959309838L656.558708869488,84.15076523779283L659.7583127138813,84.15054062460928L662.9579165582745,84.15040585669897L666.1575204026677,84.15032499595259L669.3571242470609,84.15027647950535L672.5567280914541,84.15024736963642L676.396252704726,84.15022990371546L679.5958565491193,84.15021942416251L682.7954603935125,84.15021313643109L685.9950642379057,84.15020936379261L689.1946680822989,84.15020710020917L692.3942719266921,84.15020574205892L695.5938757710853,84.15020492716872L698.7934796154785,84.15020443823465L701.9930834598717,84.15020414487441L705.1926873042651,84.15020396885785L708.3922911486583,84.1502038632479L712.2318157619301,84.15020379988238L715.4314196063233,84.15020376186266L718.6310234507165,84.15020373905156L721.8306272951097,84.15020372536492L725.0302311395029,84.15020371715252L728.2298349838961,84.15020371222477L731.4294388282893,84.15020370926845L734.6290426726825,84.15020370749465L737.8286465170758,84.1502037064306L741.028250361469,84.15020370579174L744.2278542058622,84.15020370540844L748.0673788191341,84.15020370517908L751.2669826635273,84.15020370504101L754.4665865079205,84.15020370495802L757.6661903523137,84.15020370490856L760.8657941967069,84.15020370487872L764.0653980411001,84.15020370486104L767.2650018854933,84.15020370484984L770.4646057298866,84.1502037048433L773.6642095742799,84.15020370483961L776.8638134186731,84.15020370483768L780.0634172630663,84.15020370483586" fill="none"></path></g></g></g></g><g opacity="0.2"><g><g><g><path style="fill: none;" stroke="rgb(0, 119, 187)" stroke-width="2px" d="M83.18969995422364,392.4002494812009L86.38930379861685,331.199749946594L89.58890764301007,335.3999462127683L92.7885114874033,292.19985866546614L95.98811533179651,331.199749946594L99.18771917618973,283.2001533508299L103.02724378946158,343.79983806610085L106.22684763385479,328.20018196105934L109.42645147824803,282.5998392105101L112.62605532264122,245.39988899230943L115.82565916703446,269.39993762969954L119.02526301142765,246.60001659393296L122.22486685582089,252.60015392303453L125.4244707002141,268.8001241683958L128.6240745446073,243.59994792938218L131.82367838900052,238.20012474060044L135.02328223339376,296.4000549316404L138.86280684666562,206.39999771118153L142.0624106910588,233.40011501312242L145.26201453545204,226.19985008239732L148.46161837984525,233.99992847442613L151.6612222242385,251.99983978271467L154.8608260686317,255.60022258758528L158.0604299130249,233.99992847442613L161.2600337574181,218.39977169036854L164.45963760181135,234.60024261474598L167.65924144620456,222.00015449523914L170.85884529059777,251.99983978271467L174.69836990386963,214.20007610321034L177.89797374826287,213.5997619628905L181.09757759265605,202.80011558532706L184.2971814370493,214.79988956451405L187.4967852814425,199.80004692077625L190.69638912583574,196.2001647949218L193.89599297022892,235.79986953735337L197.09559681462216,199.20023345947254L200.29520065901536,205.80018424987782L203.4948045034086,225.00022315978993L206.6944083478018,236.4001836776732L210.53393296107367,209.99987983703602L213.73353680546688,209.4000663757323L216.9331406498601,199.20023345947254L220.13274449425333,214.20007610321034L223.33234833864654,204.60005664825428L226.53195218303975,257.4001636505125L229.73155602743296,202.1998014450072L232.9311598718262,235.20005607604966L236.1307637162194,221.39984035491932L239.33036756061261,212.4001350402831L242.52997140500582,225.6000366210936L246.3694960182777,225.00022315978993L249.5690998626709,223.19978141784657L252.7687037070641,209.4000663757323L255.96830755145734,224.3999090194701L259.1679113958506,229.19991874694813L262.3675152402438,238.20012474060044L265.567119084637,188.40008640289295L268.7667229290302,205.80018424987782L271.9663267734234,216.5998306274413L275.1659306178166,214.20007610321034L278.36553446220984,210.60019397735584L282.2050590754817,197.39979171752918L285.4046629198749,229.19991874694813L288.6042667642682,190.20002746582023L291.8038706086614,196.7999782562255L295.0034744530546,194.40022373199454L298.2030782974478,199.80004692077625L301.402682141841,207.60012531280506L304.6022859862342,191.99996852874747L307.80188983062743,217.20014476776112L311.00149367502064,202.1998014450072L314.2010975194139,212.4001350402831L318.0406221326857,185.9998311996459L321.240225977079,191.99996852874747L324.4398298214722,222.00015449523914L327.6394336658654,198.59991931915275L330.8390375102586,191.99996852874747L334.0386413546518,193.20009613037098L337.2382451990451,208.19993877410877L340.4378490434383,205.199870109558L343.63745288783144,185.9998311996459L346.83705673222465,203.39992904663075L350.0366605766179,214.20007610321034L353.8761851898898,203.39992904663075L357.075789034283,209.4000663757323L360.2753928786762,223.19978141784657L363.4749967230694,193.20009613037098L366.6746005674626,232.7998008728026L369.8742044118559,182.99976253509513L373.0738082562491,201.5999879837035L376.2734121006423,225.6000366210936L379.4730159450355,200.39986038207996L382.6726197894287,196.7999782562255L385.87222363382193,188.40008640289295L389.7117482470938,213.5997619628905L392.911352091487,196.2001647949218L396.1109559358802,205.80018424987782L399.3105597802734,190.20002746582023L402.5101636246667,230.99985980987537L405.7097674690599,204.00024318695057L408.9093713134531,198.000105857849L412.1089751578463,203.39992904663075L415.3085790022396,196.7999782562255L418.50818284663274,192.59978199005118L421.70778669102594,209.4000663757323L425.5473113042978,185.9998311996459L428.746915148691,183.60007667541493L431.9465189930843,181.8001356124877L435.1461228374775,184.19989013671864L438.3457266818707,184.19989013671864L441.5453305262639,180.0001945495605L444.7449343706571,182.39994907379142L447.94453821505033,181.8001356124877L451.14414205944354,183.60007667541493L454.34374590383675,181.8001356124877L457.54334974823,182.99976253509513L461.3828743615019,178.1997528076171L464.5824782058951,178.1997528076171L467.7820820502883,176.39981174468988L470.9816858946815,179.39988040924064L474.18128973907466,179.39988040924064L477.380893583468,178.80006694793693L480.5804974278612,177.00012588500968L483.7801012722544,178.80006694793693L486.9797051166476,178.80006694793693L490.1793089610408,180.6000080108642L493.378912805434,181.8001356124877L497.21843741870595,178.1997528076171L500.41804126309916,179.39988040924064L503.61764510749236,178.80006694793693L506.8172489518855,177.00012588500968L510.0168527962787,179.39988040924064L513.2164566406719,178.1997528076171L516.4160604850651,178.80006694793693L519.6156643294584,180.6000080108642L522.8152681738517,177.5999393463134L526.0148720182449,181.8001356124877L529.2144758626381,180.0001945495605L533.0540004759099,180.0001945495605L536.2536043203031,177.00012588500968L539.4532081646963,176.39981174468988L542.6528120090895,178.1997528076171L545.8524158534829,180.0001945495605L549.0520196978761,178.80006694793693L552.2516235422693,180.0001945495605L555.4512273866625,182.39994907379142L558.6508312310557,178.80006694793693L561.8504350754489,180.6000080108642L565.050038919842,180.0001945495605L568.8895635331139,177.5999393463134L572.0891673775071,177.5999393463134L575.2887712219003,177.00012588500968L578.4883750662935,180.0001945495605L581.6879789106868,180.0001945495605L584.88758275508,178.1997528076171L588.0871865994732,178.1997528076171L591.2867904438665,180.0001945495605L594.4863942882597,180.0001945495605L597.6859981326529,178.80006694793693L600.8856019770461,180.0001945495605L604.7251265903179,179.39988040924064L607.9247304347111,178.80006694793693L611.1243342791045,178.80006694793693L614.3239381234977,179.39988040924064L617.5235419678909,178.80006694793693L620.7231458122841,178.80006694793693L623.9227496566773,178.80006694793693L627.1223535010705,178.80006694793693L630.3219573454637,178.80006694793693L633.5215611898569,178.80006694793693L636.7211650342501,179.39988040924064L640.560689647522,178.80006694793693L643.7602934919153,178.80006694793693L646.9598973363085,178.80006694793693L650.1595011807017,178.80006694793693L653.3591050250948,178.80006694793693L656.558708869488,178.80006694793693L659.7583127138813,178.80006694793693L662.9579165582745,178.80006694793693L666.1575204026677,178.80006694793693L669.3571242470609,178.80006694793693L672.5567280914541,178.80006694793693L676.396252704726,178.80006694793693L679.5958565491193,178.80006694793693L682.7954603935125,178.80006694793693L685.9950642379057,178.80006694793693L689.1946680822989,178.80006694793693L692.3942719266921,178.80006694793693L695.5938757710853,178.80006694793693L698.7934796154785,178.80006694793693L701.9930834598717,178.80006694793693L705.1926873042651,178.80006694793693L708.3922911486583,178.80006694793693L712.2318157619301,178.80006694793693L715.4314196063233,178.80006694793693L718.6310234507165,178.80006694793693L721.8306272951097,178.80006694793693L725.0302311395029,179.39988040924064L728.2298349838961,178.80006694793693L731.4294388282893,179.39988040924064L734.6290426726825,178.80006694793693L737.8286465170758,178.80006694793693L741.028250361469,179.39988040924064L744.2278542058622,179.39988040924064L748.0673788191341,178.80006694793693L751.2669826635273,179.39988040924064L754.4665865079205,178.80006694793693L757.6661903523137,179.39988040924064L760.8657941967069,180.0001945495605L764.0653980411001,179.39988040924064L767.2650018854933,179.39988040924064L770.4646057298866,179.39988040924064L773.6642095742799,180.0001945495605L776.8638134186731,180.0001945495605L780.0634172630663,180.0001945495605" fill="none"></path></g><g><path style="fill: none;" stroke="rgb(255, 112, 67)" stroke-width="2px" d="M76.79049226543721,382.350119590759L79.99009610983042,360.74982547759987L83.18969995422364,372.599896430969L86.38930379861685,319.9499931335447L89.58890764301007,312.8999319076536L92.7885114874033,266.6997756958006L95.98811533179651,298.9500131607054L99.18771917618973,252.74985694885237L103.02724378946158,294.15000343322737L106.22684763385479,300.1501407623289L109.42645147824803,246.75022029876695L112.62605532264122,221.09993362426746L115.82565916703446,225.00022315978993L119.02526301142765,209.24986267089832L122.22486685582089,232.49989414215074L125.4244707002141,241.80000686645494L128.6240745446073,203.25022602081287L131.82367838900052,190.04982376098624L135.02328223339376,238.20012474060044L138.86280684666562,171.9002094268798L142.0624106910588,187.4998655319213L145.26201453545204,184.19989013671864L148.46161837984525,191.40015506744373L151.6612222242385,197.70019912719715L154.8608260686317,204.89996337890616L158.0604299130249,179.39988040924064L161.2600337574181,176.70021915435782L164.45963760181135,175.64979457855216L167.65924144620456,163.94992733001703L170.85884529059777,182.85005950927726L174.69836990386963,156.75016307830802L177.89797374826287,165.29975795745844L181.09757759265605,143.6999645233154L184.2971814370493,158.85001087188712L187.4967852814425,145.79981231689445L190.69638912583574,139.49976825714106L193.89599297022892,173.25004005432123L197.09559681462216,140.1000823974609L200.29520065901536,137.6998271942138L203.4948045034086,167.10019969940177L206.6944083478018,161.10006237030024L210.53393296107367,147.29984664916987L213.73353680546688,137.55012416839597L216.9331406498601,137.8500308990478L220.13274449425333,152.09985637664786L223.33234833864654,141.90002346038813L226.53195218303975,187.4998655319213L229.73155602743296,139.49976825714106L232.9311598718262,150.59982204437253L236.1307637162194,150.29991531372065L239.33036756061261,139.80017566680903L242.52997140500582,174.0000572204589L246.3694960182777,160.19984149932856L249.5690998626709,141.30020999908442L252.7687037070641,131.7001905441284L255.96830755145734,152.39976310729975L259.1679113958506,157.80008697509757L262.3675152402438,146.70003318786615L265.567119084637,114.14988899230951L268.7667229290302,125.24994277954096L271.9663267734234,135.14986896514887L275.1659306178166,144.2997779846191L278.36553446220984,131.54998683929438L282.2050590754817,114.14988899230951L285.4046629198749,147.29984664916987L288.6042667642682,111.75013446807861L291.8038706086614,115.3500165939331L295.0034744530546,115.50022029876709L298.2030782974478,116.10003376007074L301.402682141841,128.40021514892575L304.6022859862342,113.250168800354L307.80188983062743,147.150143623352L311.00149367502064,133.8000383377075L314.2010975194139,125.54984951019284L318.0406221326857,111.59993076324463L321.240225977079,114.44979572296143L324.4398298214722,146.999939918518L327.6394336658654,114.89990615844727L330.8390375102586,114.14988899230951L334.0386413546518,115.80012702941895L337.2382451990451,112.50015163421625L340.4378490434383,125.40014648437497L343.63745288783144,104.54986953735352L346.83705673222465,120.30023002624506L350.0366605766179,140.39998912811274L353.8761851898898,113.69977855682367L357.075789034283,122.54978084564203L360.2753928786762,129.59984207153317L363.4749967230694,107.40023517608643L366.6746005674626,158.5501041412353L369.8742044118559,95.99977397918701L373.0738082562491,112.80005836486816L376.2734121006423,143.5497608184814L379.4730159450355,108.75006580352783L382.6726197894287,111.59993076324463L385.87222363382193,115.50022029876709L389.7117482470938,117.1499576568603L392.911352091487,114.44979572296143L396.1109559358802,116.55014419555664L399.3105597802734,101.99991130828857L402.5101636246667,141.4499130249023L405.7097674690599,110.39980316162104L408.9093713134531,100.94998741149902L412.1089751578463,107.70014190673828L415.3085790022396,101.54980087280268L418.50818284663274,106.79992103576654L421.70778669102594,114.89990615844727L425.5473113042978,99.74985980987549L428.746915148691,96.60008811950684L431.9465189930843,94.6499433517456L435.1461228374775,92.69979858398438L438.3457266818707,90.89985752105713L441.5453305262639,89.7002305984497L444.7449343706571,88.50010299682617L447.94453821505033,88.04999256134033L451.14414205944354,88.95021343231201L454.34374590383675,88.50010299682617L457.54334974823,88.50010299682617L461.3828743615019,87.59988212585449L464.5824782058951,86.8498649597168L467.7820820502883,86.25005149841309L470.9816858946815,86.0998477935791L474.18128973907466,86.39975452423096L477.380893583468,86.54995822906494L480.5804974278612,85.65023803710938L483.7801012722544,86.25005149841309L486.9797051166476,86.8498649597168L490.1793089610408,86.70016193389893L493.378912805434,86.70016193389893L497.21843741870595,85.65023803710938L500.41804126309916,85.50003433227539L503.61764510749236,85.65023803710938L506.8172489518855,85.65023803710938L510.0168527962787,85.65023803710938L513.2164566406719,85.04992389678955L516.4160604850651,85.20012760162354L519.6156643294584,85.65023803710938L522.8152681738517,85.65023803710938L526.0148720182449,85.79994106292725L529.2144758626381,85.65023803710938L533.0540004759099,85.3498306274414L536.2536043203031,85.3498306274414L539.4532081646963,85.50003433227539L542.6528120090895,85.20012760162354L545.8524158534829,85.04992389678955L549.0520196978761,85.20012760162354L552.2516235422693,84.90022087097168L555.4512273866625,85.04992389678955L558.6508312310557,84.7500171661377L561.8504350754489,84.90022087097168L565.050038919842,84.90022087097168L568.8895635331139,84.7500171661377L572.0891673775071,84.59981346130371L575.2887712219003,85.04992389678955L578.4883750662935,84.59981346130371L581.6879789106868,84.90022087097168L584.88758275508,84.7500171661377L588.0871865994732,84.29990673065186L591.2867904438665,84.45011043548584L594.4863942882597,84.45011043548584L597.6859981326529,84.45011043548584L600.8856019770461,84.29990673065186L604.7251265903179,84.29990673065186L607.9247304347111,84.29990673065186L611.1243342791045,84.29990673065186L614.3239381234977,84.29990673065186L617.5235419678909,84.29990673065186L620.7231458122841,84.29990673065186L623.9227496566773,84.15020370483398L627.1223535010705,84.15020370483398L630.3219573454637,84.15020370483398L633.5215611898569,84.15020370483398L636.7211650342501,84.15020370483398L640.560689647522,84.15020370483398L643.7602934919153,84.15020370483398L646.9598973363085,84.15020370483398L650.1595011807017,84.15020370483398L653.3591050250948,84.15020370483398L656.558708869488,84.15020370483398L659.7583127138813,84.15020370483398L662.9579165582745,84.15020370483398L666.1575204026677,84.15020370483398L669.3571242470609,84.15020370483398L672.5567280914541,84.15020370483398L676.396252704726,84.15020370483398L679.5958565491193,84.15020370483398L682.7954603935125,84.15020370483398L685.9950642379057,84.15020370483398L689.1946680822989,84.15020370483398L692.3942719266921,84.15020370483398L695.5938757710853,84.15020370483398L698.7934796154785,84.15020370483398L701.9930834598717,84.15020370483398L705.1926873042651,84.15020370483398L708.3922911486583,84.15020370483398L712.2318157619301,84.15020370483398L715.4314196063233,84.15020370483398L718.6310234507165,84.15020370483398L721.8306272951097,84.15020370483398L725.0302311395029,84.15020370483398L728.2298349838961,84.15020370483398L731.4294388282893,84.15020370483398L734.6290426726825,84.15020370483398L737.8286465170758,84.15020370483398L741.028250361469,84.15020370483398L744.2278542058622,84.15020370483398L748.0673788191341,84.15020370483398L751.2669826635273,84.15020370483398L754.4665865079205,84.15020370483398L757.6661903523137,84.15020370483398L760.8657941967069,84.15020370483398L764.0653980411001,84.15020370483398L767.2650018854933,84.15020370483398L770.4646057298866,84.15020370483398L773.6642095742799,84.15020370483398L776.8638134186731,84.15020370483398L780.0634172630663,84.15020370483398" fill="none"></path></g></g></g></g></g></g><g transform="translate(61, 378)" clip-path="url(#clip_1)"><clipPath id="clip_1"><rect width="831" height="22"></rect></clipPath><g><g><line x1="0" y1="0" x2="0" y2="5" style="visibility: inherit;" fill="rgb(0, 0, 0)" stroke="rgb(204, 204, 204)" stroke-width="1px"></line><line x1="63.992076887864336" y1="0" x2="63.992076887864336" y2="5" style="visibility: inherit;" fill="rgb(0, 0, 0)" stroke="rgb(204, 204, 204)" stroke-width="1px"></line><line x1="127.98415377572867" y1="0" x2="127.98415377572867" y2="5" style="visibility: inherit;" fill="rgb(0, 0, 0)" stroke="rgb(204, 204, 204)" stroke-width="1px"></line><line x1="191.97623066359301" y1="0" x2="191.97623066359301" y2="5" style="visibility: inherit;" fill="rgb(0, 0, 0)" stroke="rgb(204, 204, 204)" stroke-width="1px"></line><line x1="255.96830755145734" y1="0" x2="255.96830755145734" y2="5" style="visibility: inherit;" fill="rgb(0, 0, 0)" stroke="rgb(204, 204, 204)" stroke-width="1px"></line><line x1="319.9603844393217" y1="0" x2="319.9603844393217" y2="5" style="visibility: inherit;" fill="rgb(0, 0, 0)" stroke="rgb(204, 204, 204)" stroke-width="1px"></line><line x1="383.95246132718603" y1="0" x2="383.95246132718603" y2="5" style="visibility: inherit;" fill="rgb(0, 0, 0)" stroke="rgb(204, 204, 204)" stroke-width="1px"></line><line x1="447.94453821505033" y1="0" x2="447.94453821505033" y2="5" style="visibility: inherit;" fill="rgb(0, 0, 0)" stroke="rgb(204, 204, 204)" stroke-width="1px"></line><line x1="511.9366151029147" y1="0" x2="511.9366151029147" y2="5" style="visibility: inherit;" fill="rgb(0, 0, 0)" stroke="rgb(204, 204, 204)" stroke-width="1px"></line><line x1="575.928691990779" y1="0" x2="575.928691990779" y2="5" style="visibility: inherit;" fill="rgb(0, 0, 0)" stroke="rgb(204, 204, 204)" stroke-width="1px"></line><line x1="639.9207688786433" y1="0" x2="639.9207688786433" y2="5" style="visibility: inherit;" fill="rgb(0, 0, 0)" stroke="rgb(204, 204, 204)" stroke-width="1px"></line><line x1="703.9128457665076" y1="0" x2="703.9128457665076" y2="5" style="visibility: inherit;" fill="rgb(0, 0, 0)" stroke="rgb(204, 204, 204)" stroke-width="1px"></line><line x1="767.9049226543721" y1="0" x2="767.9049226543721" y2="5" style="visibility: inherit;" fill="rgb(0, 0, 0)" stroke="rgb(204, 204, 204)" stroke-width="1px"></line><line x1="831.8969995422364" y1="0" x2="831.8969995422364" y2="5" style="visibility: inherit;" fill="rgb(0, 0, 0)" stroke="rgb(204, 204, 204)" stroke-width="1px"></line></g><g transform="translate(0, 8)"><text style="text-anchor: middle; visibility: hidden; font-family: &quot;Helvetica Neue&quot;, sans-serif; font-size: 12px; font-weight: 200;" x="0" y="0" dx="0em" dy="0.95em" fill="rgb(50, 49, 63)" stroke="none" stroke-width="1px">-2k</text><text style="text-anchor: middle; visibility: inherit; font-family: &quot;Helvetica Neue&quot;, sans-serif; font-size: 12px; font-weight: 200;" x="63.992076887864336" y="0" dx="0em" dy="0.95em" fill="rgb(50, 49, 63)" stroke="none" stroke-width="1px">0</text><text style="text-anchor: middle; visibility: inherit; font-family: &quot;Helvetica Neue&quot;, sans-serif; font-size: 12px; font-weight: 200;" x="127.98415377572867" y="0" dx="0em" dy="0.95em" fill="rgb(50, 49, 63)" stroke="none" stroke-width="1px">2k</text><text style="text-anchor: middle; visibility: inherit; font-family: &quot;Helvetica Neue&quot;, sans-serif; font-size: 12px; font-weight: 200;" x="191.97623066359301" y="0" dx="0em" dy="0.95em" fill="rgb(50, 49, 63)" stroke="none" stroke-width="1px">4k</text><text style="text-anchor: middle; visibility: inherit; font-family: &quot;Helvetica Neue&quot;, sans-serif; font-size: 12px; font-weight: 200;" x="255.96830755145734" y="0" dx="0em" dy="0.95em" fill="rgb(50, 49, 63)" stroke="none" stroke-width="1px">6k</text><text style="text-anchor: middle; visibility: inherit; font-family: &quot;Helvetica Neue&quot;, sans-serif; font-size: 12px; font-weight: 200;" x="319.9603844393217" y="0" dx="0em" dy="0.95em" fill="rgb(50, 49, 63)" stroke="none" stroke-width="1px">8k</text><text style="text-anchor: middle; visibility: inherit; font-family: &quot;Helvetica Neue&quot;, sans-serif; font-size: 12px; font-weight: 200;" x="383.95246132718603" y="0" dx="0em" dy="0.95em" fill="rgb(50, 49, 63)" stroke="none" stroke-width="1px">10k</text><text style="text-anchor: middle; visibility: inherit; font-family: &quot;Helvetica Neue&quot;, sans-serif; font-size: 12px; font-weight: 200;" x="447.94453821505033" y="0" dx="0em" dy="0.95em" fill="rgb(50, 49, 63)" stroke="none" stroke-width="1px">12k</text><text style="text-anchor: middle; visibility: inherit; font-family: &quot;Helvetica Neue&quot;, sans-serif; font-size: 12px; font-weight: 200;" x="511.9366151029147" y="0" dx="0em" dy="0.95em" fill="rgb(50, 49, 63)" stroke="none" stroke-width="1px">14k</text><text style="text-anchor: middle; visibility: inherit; font-family: &quot;Helvetica Neue&quot;, sans-serif; font-size: 12px; font-weight: 200;" x="575.928691990779" y="0" dx="0em" dy="0.95em" fill="rgb(50, 49, 63)" stroke="none" stroke-width="1px">16k</text><text style="text-anchor: middle; visibility: inherit; font-family: &quot;Helvetica Neue&quot;, sans-serif; font-size: 12px; font-weight: 200;" x="639.9207688786433" y="0" dx="0em" dy="0.95em" fill="rgb(50, 49, 63)" stroke="none" stroke-width="1px">18k</text><text style="text-anchor: middle; visibility: inherit; font-family: &quot;Helvetica Neue&quot;, sans-serif; font-size: 12px; font-weight: 200;" x="703.9128457665076" y="0" dx="0em" dy="0.95em" fill="rgb(50, 49, 63)" stroke="none" stroke-width="1px">20k</text><text style="text-anchor: middle; visibility: inherit; font-family: &quot;Helvetica Neue&quot;, sans-serif; font-size: 12px; font-weight: 200;" x="767.9049226543721" y="0" dx="0em" dy="0.95em" fill="rgb(50, 49, 63)" stroke="none" stroke-width="1px">22k</text><text style="text-anchor: middle; visibility: hidden; font-family: &quot;Helvetica Neue&quot;, sans-serif; font-size: 12px; font-weight: 200;" x="831.8969995422364" y="0" dx="0em" dy="0.95em" fill="rgb(50, 49, 63)" stroke="none" stroke-width="1px">24k</text></g><line x1="0" y1="0" x2="831.8969995422364" y2="0" fill="rgb(0, 0, 0)" stroke="rgb(204, 204, 204)" stroke-width="1px"></line></g></g></g></g></svg>