<svg viewBox="0 0 893.6666259765625 400" xmlns="http://www.w3.org/2000/svg"><g><g><g><g><g><line x1="61.77000045776367" y1="377.9699993133545" x2="56.77000045776367" y2="377.9699993133545" style="visibility: inherit;" fill="rgb(0, 0, 0)" stroke="rgb(204, 204, 204)" stroke-width="1px"></line><line x1="61.77000045776367" y1="340.17299938201904" x2="56.77000045776367" y2="340.17299938201904" style="visibility: inherit;" fill="rgb(0, 0, 0)" stroke="rgb(204, 204, 204)" stroke-width="1px"></line><line x1="61.77000045776367" y1="302.3759994506836" x2="56.77000045776367" y2="302.3759994506836" style="visibility: inherit;" fill="rgb(0, 0, 0)" stroke="rgb(204, 204, 204)" stroke-width="1px"></line><line x1="61.77000045776367" y1="264.57899951934814" x2="56.77000045776367" y2="264.57899951934814" style="visibility: inherit;" fill="rgb(0, 0, 0)" stroke="rgb(204, 204, 204)" stroke-width="1px"></line><line x1="61.77000045776367" y1="226.7819995880127" x2="56.77000045776367" y2="226.7819995880127" style="visibility: inherit;" fill="rgb(0, 0, 0)" stroke="rgb(204, 204, 204)" stroke-width="1px"></line><line x1="61.77000045776367" y1="188.98499965667725" x2="56.77000045776367" y2="188.98499965667725" style="visibility: inherit;" fill="rgb(0, 0, 0)" stroke="rgb(204, 204, 204)" stroke-width="1px"></line><line x1="61.77000045776367" y1="151.1879997253418" x2="56.77000045776367" y2="151.1879997253418" style="visibility: inherit;" fill="rgb(0, 0, 0)" stroke="rgb(204, 204, 204)" stroke-width="1px"></line><line x1="61.77000045776367" y1="113.39099979400635" x2="56.77000045776367" y2="113.39099979400635" style="visibility: inherit;" fill="rgb(0, 0, 0)" stroke="rgb(204, 204, 204)" stroke-width="1px"></line><line x1="61.77000045776367" y1="75.5939998626709" x2="56.77000045776367" y2="75.5939998626709" style="visibility: inherit;" fill="rgb(0, 0, 0)" stroke="rgb(204, 204, 204)" stroke-width="1px"></line><line x1="61.77000045776367" y1="37.7969999313363" x2="56.77000045776367" y2="37.7969999313363" style="visibility: inherit;" fill="rgb(0, 0, 0)" stroke="rgb(204, 204, 204)" stroke-width="1px"></line><line x1="61.77000045776367" y1="0" x2="56.77000045776367" y2="0" style="visibility: inherit;" fill="rgb(0, 0, 0)" stroke="rgb(204, 204, 204)" stroke-width="1px"></line></g><g transform="translate(51.77000045776367, 0)"><text style="text-anchor: end; visibility: hidden; font-family: &quot;Helvetica Neue&quot;, sans-serif; font-size: 12px; font-weight: 200;" x="0" y="377.9699993133545" dx="0em" dy="0.3em" fill="rgb(50, 49, 63)" stroke="none" stroke-width="1px">0.96</text><text style="text-anchor: end; visibility: inherit; font-family: &quot;Helvetica Neue&quot;, sans-serif; font-size: 12px; font-weight: 200;" x="0" y="340.17299938201904" dx="0em" dy="0.3em" fill="rgb(50, 49, 63)" stroke="none" stroke-width="1px">0.965</text><text style="text-anchor: end; visibility: inherit; font-family: &quot;Helvetica Neue&quot;, sans-serif; font-size: 12px; font-weight: 200;" x="0" y="302.3759994506836" dx="0em" dy="0.3em" fill="rgb(50, 49, 63)" stroke="none" stroke-width="1px">0.97</text><text style="text-anchor: end; visibility: inherit; font-family: &quot;Helvetica Neue&quot;, sans-serif; font-size: 12px; font-weight: 200;" x="0" y="264.57899951934814" dx="0em" dy="0.3em" fill="rgb(50, 49, 63)" stroke="none" stroke-width="1px">0.975</text><text style="text-anchor: end; visibility: inherit; font-family: &quot;Helvetica Neue&quot;, sans-serif; font-size: 12px; font-weight: 200;" x="0" y="226.7819995880127" dx="0em" dy="0.3em" fill="rgb(50, 49, 63)" stroke="none" stroke-width="1px">0.98</text><text style="text-anchor: end; visibility: inherit; font-family: &quot;Helvetica Neue&quot;, sans-serif; font-size: 12px; font-weight: 200;" x="0" y="188.98499965667725" dx="0em" dy="0.3em" fill="rgb(50, 49, 63)" stroke="none" stroke-width="1px">0.985</text><text style="text-anchor: end; visibility: inherit; font-family: &quot;Helvetica Neue&quot;, sans-serif; font-size: 12px; font-weight: 200;" x="0" y="151.1879997253418" dx="0em" dy="0.3em" fill="rgb(50, 49, 63)" stroke="none" stroke-width="1px">0.99</text><text style="text-anchor: end; visibility: inherit; font-family: &quot;Helvetica Neue&quot;, sans-serif; font-size: 12px; font-weight: 200;" x="0" y="113.39099979400635" dx="0em" dy="0.3em" fill="rgb(50, 49, 63)" stroke="none" stroke-width="1px">0.995</text><text style="text-anchor: end; visibility: inherit; font-family: &quot;Helvetica Neue&quot;, sans-serif; font-size: 12px; font-weight: 200;" x="0" y="75.5939998626709" dx="0em" dy="0.3em" fill="rgb(50, 49, 63)" stroke="none" stroke-width="1px">1</text><text style="text-anchor: end; visibility: inherit; font-family: &quot;Helvetica Neue&quot;, sans-serif; font-size: 12px; font-weight: 200;" x="0" y="37.7969999313363" dx="0em" dy="0.3em" fill="rgb(50, 49, 63)" stroke="none" stroke-width="1px">1</text><text style="text-anchor: end; visibility: hidden; font-family: &quot;Helvetica Neue&quot;, sans-serif; font-size: 12px; font-weight: 200;" x="0" y="0" dx="0em" dy="0.3em" fill="rgb(50, 49, 63)" stroke="none" stroke-width="1px">1.01</text></g><line x1="61.77000045776367" y1="0" x2="61.77000045776367" y2="377.9699993133545" fill="rgb(0, 0, 0)" stroke="rgb(204, 204, 204)" stroke-width="1px"></line></g></g><g transform="translate(61, 0)" clip-path="url(#clip_0)"><clipPath id="clip_0"><rect width="831" height="377"></rect></clipPath><g><g><g><line x1="0" y1="0" x2="0" y2="377.9699993133545" fill="rgb(0, 0, 0)" stroke="rgb(60, 60, 60)" stroke-width="1px" opacity="0.25"></line><line x1="63.992076887864336" y1="0" x2="63.992076887864336" y2="377.9699993133545" fill="rgb(0, 0, 0)" stroke="rgb(60, 60, 60)" stroke-width="1px" opacity="0.25"></line><line x1="127.98415377572867" y1="0" x2="127.98415377572867" y2="377.9699993133545" fill="rgb(0, 0, 0)" stroke="rgb(60, 60, 60)" stroke-width="1px" opacity="0.25"></line><line x1="191.97623066359301" y1="0" x2="191.97623066359301" y2="377.9699993133545" fill="rgb(0, 0, 0)" stroke="rgb(60, 60, 60)" stroke-width="1px" opacity="0.25"></line><line x1="255.96830755145734" y1="0" x2="255.96830755145734" y2="377.9699993133545" fill="rgb(0, 0, 0)" stroke="rgb(60, 60, 60)" stroke-width="1px" opacity="0.25"></line><line x1="319.9603844393217" y1="0" x2="319.9603844393217" y2="377.9699993133545" fill="rgb(0, 0, 0)" stroke="rgb(60, 60, 60)" stroke-width="1px" opacity="0.25"></line><line x1="383.95246132718603" y1="0" x2="383.95246132718603" y2="377.9699993133545" fill="rgb(0, 0, 0)" stroke="rgb(60, 60, 60)" stroke-width="1px" opacity="0.25"></line><line x1="447.94453821505033" y1="0" x2="447.94453821505033" y2="377.9699993133545" fill="rgb(0, 0, 0)" stroke="rgb(60, 60, 60)" stroke-width="1px" opacity="0.25"></line><line x1="511.9366151029147" y1="0" x2="511.9366151029147" y2="377.9699993133545" fill="rgb(0, 0, 0)" stroke="rgb(60, 60, 60)" stroke-width="1px" opacity="0.25"></line><line x1="575.928691990779" y1="0" x2="575.928691990779" y2="377.9699993133545" fill="rgb(0, 0, 0)" stroke="rgb(60, 60, 60)" stroke-width="1px" opacity="0.25"></line><line x1="639.9207688786433" y1="0" x2="639.9207688786433" y2="377.9699993133545" fill="rgb(0, 0, 0)" stroke="rgb(60, 60, 60)" stroke-width="1px" opacity="0.25"></line><line x1="703.9128457665076" y1="0" x2="703.9128457665076" y2="377.9699993133545" fill="rgb(0, 0, 0)" stroke="rgb(60, 60, 60)" stroke-width="1px" opacity="0.25"></line><line x1="767.9049226543721" y1="0" x2="767.9049226543721" y2="377.9699993133545" fill="rgb(0, 0, 0)" stroke="rgb(60, 60, 60)" stroke-width="1px" opacity="0.25"></line><line x1="831.8969995422364" y1="0" x2="831.8969995422364" y2="377.9699993133545" fill="rgb(0, 0, 0)" stroke="rgb(60, 60, 60)" stroke-width="1px" opacity="0.25"></line></g><g><line x1="0" y1="377.9699993133545" x2="831.8969995422364" y2="377.9699993133545" fill="rgb(0, 0, 0)" stroke="rgb(60, 60, 60)" stroke-width="1px" opacity="0.25"></line><line x1="0" y1="340.17299938201904" x2="831.8969995422364" y2="340.17299938201904" fill="rgb(0, 0, 0)" stroke="rgb(60, 60, 60)" stroke-width="1px" opacity="0.25"></line><line x1="0" y1="302.3759994506836" x2="831.8969995422364" y2="302.3759994506836" fill="rgb(0, 0, 0)" stroke="rgb(60, 60, 60)" stroke-width="1px" opacity="0.25"></line><line x1="0" y1="264.57899951934814" x2="831.8969995422364" y2="264.57899951934814" fill="rgb(0, 0, 0)" stroke="rgb(60, 60, 60)" stroke-width="1px" opacity="0.25"></line><line x1="0" y1="226.7819995880127" x2="831.8969995422364" y2="226.7819995880127" fill="rgb(0, 0, 0)" stroke="rgb(60, 60, 60)" stroke-width="1px" opacity="0.25"></line><line x1="0" y1="188.98499965667725" x2="831.8969995422364" y2="188.98499965667725" fill="rgb(0, 0, 0)" stroke="rgb(60, 60, 60)" stroke-width="1px" opacity="0.25"></line><line x1="0" y1="151.1879997253418" x2="831.8969995422364" y2="151.1879997253418" fill="rgb(0, 0, 0)" stroke="rgb(60, 60, 60)" stroke-width="1px" opacity="0.25"></line><line x1="0" y1="113.39099979400635" x2="831.8969995422364" y2="113.39099979400635" fill="rgb(0, 0, 0)" stroke="rgb(60, 60, 60)" stroke-width="1px" opacity="0.25"></line><line x1="0" y1="75.5939998626709" x2="831.8969995422364" y2="75.5939998626709" fill="rgb(0, 0, 0)" stroke="rgb(60, 60, 60)" stroke-width="1px" opacity="0.25"></line><line x1="0" y1="37.7969999313363" x2="831.8969995422364" y2="37.7969999313363" fill="rgb(0, 0, 0)" stroke="rgb(60, 60, 60)" stroke-width="1px" opacity="0.25"></line><line x1="0" y1="0" x2="831.8969995422364" y2="0" fill="rgb(0, 0, 0)" stroke="rgb(60, 60, 60)" stroke-width="1px" opacity="0.25"></line></g></g></g><g><g><line x1="0" y1="7634.9939861297535" x2="831.8969995422364" y2="7634.9939861297535" fill="rgb(0, 0, 0)" stroke="rgb(153, 153, 153)" stroke-width="1.5px"></line></g></g><g><g><line x1="63.992076887864336" y1="0" x2="63.992076887864336" y2="377.9699993133545" fill="rgb(0, 0, 0)" stroke="rgb(153, 153, 153)" stroke-width="1.5px"></line></g></g><g><g><g><g><g><path style="fill: none;" stroke="rgb(0, 119, 187)" stroke-width="2px" d="M89.58890764301007,415.1354734292229L92.7885114874033,371.31788333048996L95.98811533179651,345.7462996824112L99.18771917618973,339.3901586751006L103.02724378946158,321.0890183948794L106.22684763385479,298.4553776469828L109.42645147824803,292.2433633797308L112.62605532264122,302.3487050372899L115.82565916703446,319.42710214373903L119.02526301142765,293.81180476838784L122.22486685582089,275.205255473903L125.4244707002141,262.0986348490909L128.6240745446073,257.6910327012156L131.82367838900052,276.4293672453343L135.02328223339376,261.1058325300506L138.86280684666562,247.3761332520061L142.0624106910588,239.3544800414015L145.26201453545204,254.8439547826905L148.46161837984525,241.45939442764288L151.6612222242385,229.7568404192501L154.8608260686317,226.6230624249077L158.0604299130249,220.6391352820949L161.2600337574181,216.40085290966124L164.45963760181135,213.2099566453306L167.65924144620456,211.51133488294911L170.85884529059777,208.33228380684417L174.69836990386963,212.47247579134108L177.89797374826287,208.0451253648379L181.09757759265605,207.76450889235815L184.2971814370493,209.53992108651872L187.4967852814425,206.71760425401234L190.69638912583574,208.26385094138055L193.89599297022892,205.5199505273018L197.09559681462216,202.57775557098435L200.29520065901536,209.45159015081103L203.4948045034086,210.76826576927297L206.6944083478018,205.5106487793265L210.53393296107367,208.6196166544758L213.73353680546688,200.33371495316675L216.9331406498601,200.76186893805806L220.13274449425333,194.53930755280362L223.33234833864654,197.06912855956816L226.53195218303975,191.67573597121645L229.73155602743296,195.3509856105989L232.9311598718262,202.30790304478583L236.1307637162194,200.21851543739115L239.33036756061261,197.23701651733845L242.52997140500582,196.95988758263627L246.3694960182777,193.98598509530757L249.5690998626709,195.00926872941824L252.7687037070641,191.51957884405945L255.96830755145734,186.18612813989736L259.1679113958506,186.65770613678637L262.3675152402438,187.15656864307005L265.567119084637,182.92039466471516L268.7667229290302,183.40241134249908L271.9663267734234,186.49942670581618L275.1659306178166,186.62976956818787L278.36553446220984,185.19602463814226L282.2050590754817,181.744068261759L285.4046629198749,183.128627147165L288.6042667642682,185.68722883402648L291.8038706086614,189.59818355634982L295.0034744530546,186.54506138459985L298.2030782974478,190.97672614943386L301.402682141841,187.5882828787399L304.6022859862342,193.33052540153548L307.80188983062743,191.5922718483581L311.00149367502064,187.3096829435059L314.2010975194139,187.54775472710094L318.0406221326857,185.53090002534165L321.240225977079,178.92109219914175L324.4398298214722,176.25124244273997L327.6394336658654,176.37719894451678L330.8390375102586,180.98826432770815L334.0386413546518,178.35538878261798L337.2382451990451,180.01548045865036L340.4378490434383,177.9878143994738L343.63745288783144,182.17072953897215L346.83705673222465,181.0088302032846L350.0366605766179,182.6874843120802L353.8761851898898,180.2389440661214L357.075789034283,187.62506740478543L360.2753928786762,183.6333253380428L363.4749967230694,183.61425403834588L366.6746005674626,183.17079961208844L369.8742044118559,182.68863101804286L373.0738082562491,182.399329861616L376.2734121006423,189.13721459023162L379.4730159450355,185.83664858863068L382.6726197894287,184.9362479886986L385.87222363382193,179.64423997818443L389.7117482470938,177.11696252646448L392.911352091487,176.46461934831171L396.1109559358802,174.345347085802L399.3105597802734,177.39335950227164L402.5101636246667,179.43826289044375L405.7097674690599,173.96965520902356L408.9093713134531,172.20044124763987L412.1089751578463,178.69830564787165L415.3085790022396,178.70927993033482L418.50818284663274,178.06793714522297L421.70778669102594,177.68313147415654L425.5473113042978,174.2124310684302L428.746915148691,171.26616776225552L431.9465189930843,167.98645913108194L435.1461228374775,165.80271824422869L438.3457266818707,163.8445463575272L441.5453305262639,162.2376315790672L444.7449343706571,161.27348271199068L447.94453821505033,160.6949933917451L451.14414205944354,160.34789979959777L454.34374590383675,159.92372793615888L457.54334974823,160.31715217268598L461.3828743615019,161.4170497773409L464.5824782058951,161.21314527739534L467.7820820502883,160.8747066391372L470.9816858946815,161.31975104091154L474.18128973907466,159.42689967991902L477.380893583468,159.3711278643523L480.5804974278612,159.7694961913112L483.7801012722544,160.0085171874869L486.9797051166476,159.72009836889353L490.1793089610408,158.8991197231483L493.378912805434,159.0544598902894L497.21843741870595,158.93156805228438L500.41804126309916,159.50576030407078L503.61764510749236,159.8502756551426L506.8172489518855,159.84106915763593L510.0168527962787,159.83554525913192L513.2164566406719,159.18430356544027L516.4160604850651,160.08941325840377L519.6156643294584,159.76863601144368L522.8152681738517,160.00800107956601L526.0148720182449,159.9357044122898L529.2144758626381,159.67641070377428L533.0540004759099,158.65681118578593L536.2536043203031,158.47706312143302L539.4532081646963,158.58512999097073L542.6528120090895,158.64997011269287L545.8524158534829,158.25704276942756L549.0520196978761,159.31714107264582L552.2516235422693,159.95320005457813L555.4512273866625,159.254896442708L558.6508312310557,158.61999856743597L561.8504350754489,158.02296390398263L565.050038919842,158.96059781508973L568.8895635331139,158.22732345257486L572.0891673775071,158.21937048150656L575.2887712219003,158.86252605345413L578.4883750662935,158.81640775018272L581.6879789106868,158.3569053519208L584.88758275508,158.72913126755356L588.0871865994732,158.7363708786429L591.2867904438665,159.60473793817502L594.4863942882597,160.34167388204443L597.6859981326529,159.9199923856279L600.8856019770461,160.96283819695628L604.7251265903179,160.50860668272463L607.9247304347111,160.02015206603534L611.1243342791045,159.2950676495825L614.3239381234977,159.2920286461504L617.5235419678909,159.07410930580085L620.7231458122841,159.3753693480307L623.9227496566773,159.34020966521982L627.1223535010705,159.5350295636826L630.3219573454637,159.6519215027599L633.5215611898569,159.7220566662063L636.7211650342501,159.76413776427466L640.560689647522,159.57347071496503L643.7602934919153,159.02705883894015L646.9598973363085,158.69921171332572L650.1595011807017,158.5025034379564L653.3591050250948,158.60039418088425L656.558708869488,158.22729721034207L659.7583127138813,158.00343902801674L662.9579165582745,157.86912411862224L666.1575204026677,157.78853517298418L669.3571242470609,157.74018180560168L672.5567280914541,157.92708549332264L676.396252704726,157.82331199780526L679.5958565491193,157.761047900494L682.7954603935125,157.5075935038176L685.9950642379057,158.0034482204013L689.1946680822989,158.3009610503517L692.3942719266921,158.47946874832144L695.5938757710853,158.1547419508049L698.7934796154785,157.95990587229412L701.9930834598717,157.84300422518797L705.1926873042651,157.77286323692428L708.3922911486583,157.73077864396674L712.2318157619301,157.70552788819157L715.4314196063233,157.47428149643596L718.6310234507165,157.76754530782304L721.8306272951097,157.72758788650484L725.0302311395029,157.91952914186388L728.2298349838961,158.0346938950796L731.4294388282893,157.88787703885927L734.6290426726825,157.79978692512674L737.8286465170758,157.7469328568879L741.028250361469,157.71522041594392L744.2278542058622,157.48009701308771L748.0673788191341,157.55511890966463L751.2669826635273,157.6001320476103L754.4665865079205,158.70689870126634L757.6661903523137,159.15504298531067L760.8657941967069,158.77600220114735L764.0653980411001,158.54857773064955L767.2650018854933,158.19620734020108L770.4646057298866,157.9847851059325L773.6642095742799,158.07384747352063L776.8638134186731,157.91136918592355L780.0634172630663,157.81388221336496" fill="none"></path></g><g><path style="fill: none;" stroke="rgb(255, 112, 67)" stroke-width="2px" d="M89.58890764301007,385.8255784376943L92.7885114874033,343.8149700607749L95.98811533179651,312.0364955531033L99.18771917618973,308.91695845170847L103.02724378946158,292.6582617904776L106.22684763385479,271.95033299908243L109.42645147824803,262.6229222457053L112.62605532264122,268.1055575243387L115.82565916703446,283.32989338435067L119.02526301142765,256.27856567800416L122.22486685582089,234.4885932804743L125.4244707002141,222.71195991916343L128.6240745446073,219.8582111053221L131.82367838900052,232.45517379689724L135.02328223339376,215.9308666827085L138.86280684666562,207.09636914227278L142.0624106910588,196.07211958224232L145.26201453545204,207.97810515563273L148.46161837984525,191.2555589387115L151.6612222242385,185.43367169542074L154.8608260686317,182.2645971543467L158.0604299130249,177.87940119577718L161.2600337574181,174.11427636088195L164.45963760181135,171.09931668373488L167.65924144620456,166.3205086442052L170.85884529059777,164.803147879645L174.69836990386963,169.6701890121482L177.89797374826287,163.35722335310757L181.09757759265605,161.40526825576742L184.2971814370493,158.88417145060714L187.4967852814425,156.0217698513399L190.69638912583574,158.5698356399535L193.89599297022892,155.61707243333896L197.09559681462216,151.8475634044205L200.29520065901536,156.9832238734413L203.4948045034086,155.9609600862617L206.6944083478018,151.29801078972392L210.53393296107367,155.8976070939664L213.73353680546688,147.85833532552502L216.9331406498601,146.54439378811458L220.13274449425333,140.464471944653L223.33234833864654,137.464446193262L226.53195218303975,135.0165033878578L229.73155602743296,140.45920312713503L232.9311598718262,141.99695661506064L236.1307637162194,138.06006343331453L239.33036756061261,134.45596162705934L242.52997140500582,136.2351337129537L246.3694960182777,134.8188854002074L249.5690998626709,136.83083058117438L252.7687037070641,130.26268920454146L255.96830755145734,123.56806806402358L259.1679113958506,125.70669536338139L262.3675152402438,129.63565020345987L265.567119084637,127.5114204373501L268.7667229290302,126.77685207819832L271.9663267734234,124.2303021027565L275.1659306178166,121.56836407435651L278.36553446220984,118.45943083998674L282.2050590754817,118.26786821287635L285.4046629198749,116.96503378150675L288.6042667642682,119.04520752143901L291.8038706086614,124.1808758929331L295.0034744530546,124.94055224773018L298.2030782974478,124.96434641416951L301.402682141841,120.22703549361802L304.6022859862342,123.05414846654847L307.80188983062743,120.0528978719999L311.00149367502064,122.08582283083842L314.2010975194139,118.9858218020272L318.0406221326857,119.28569918679665L321.240225977079,114.87606509342714L324.4398298214722,110.77240303204422L327.6394336658654,108.74203721151343L330.8390375102586,114.2193674335175L334.0386413546518,110.59430014424828L337.2382451990451,112.95493148295202L340.4378490434383,109.72768071983398L343.63745288783144,111.8409212856809L346.83705673222465,113.43291941755388L350.0366605766179,113.57816404590568L353.8761851898898,109.29166600683419L357.075789034283,113.84714831401357L360.2753928786762,110.26301081847055L363.4749967230694,106.38466196552685L366.6746005674626,107.62134321907229L369.8742044118559,108.4713098252738L373.0738082562491,106.44346918260538L376.2734121006423,109.16839796664692L379.4730159450355,104.70184406537095L382.6726197894287,108.06953408433839L385.87222363382193,106.20240373804427L389.7117482470938,106.21613357340391L392.911352091487,106.11623339040403L396.1109559358802,102.76258746555106L399.3105597802734,102.37030841218268L402.5101636246667,106.94059744268316L405.7097674690599,104.55324083623714L408.9093713134531,101.12297576649428L412.1089751578463,104.35637364557738L415.3085790022396,103.38064916230542L418.50818284663274,101.49917953302338L421.70778669102594,99.45238565060754L425.5473113042978,95.25465729846911L428.746915148691,91.87199699430772L431.9465189930843,89.46445820747834L435.1461228374775,87.58792328894128L438.3457266818707,85.70611712915547L441.5453305262639,84.7390603294661L444.7449343706571,83.72681460321269L447.94453821505033,83.33538287560958L451.14414205944354,82.830539088791L454.34374590383675,82.63577090091536L457.54334974823,82.62686784226446L461.3828743615019,82.40543006878431L464.5824782058951,82.3266364468031L467.7820820502883,82.27936027361454L470.9816858946815,82.19692552759363L474.18128973907466,82.09357586801474L477.380893583468,81.38363871767763L480.5804974278612,80.84971857340128L483.7801012722544,80.85324004905885L486.9797051166476,81.01737983063549L490.1793089610408,80.95383680339972L493.378912805434,81.0236688411324L497.21843741870595,80.95761020969803L500.41804126309916,81.13407096912744L503.61764510749236,81.13180934056902L506.8172489518855,81.07656355146742L510.0168527962787,80.88138918182392L513.2164566406719,80.81835360214524L516.4160604850651,80.40240941986582L519.6156643294584,80.31486980668069L522.8152681738517,80.37030389284445L526.0148720182449,80.24171767850066L529.2144758626381,80.38048165804372L533.0540004759099,80.35578219169537L536.2536043203031,80.12486657359636L539.4532081646963,80.04038624484355L542.6528120090895,79.93562900548466L545.8524158534829,79.92684370397751L549.0520196978761,79.75954562689122L552.2516235422693,79.60527796867166L555.4512273866625,79.51271737373929L558.6508312310557,79.51106982874728L561.8504350754489,79.45619248978483L565.050038919842,79.47715489837492L568.8895635331139,79.54380138563687L572.0891673775071,79.58378927799407L575.2887712219003,79.87776676366542L578.4883750662935,79.94619540099342L581.6879789106868,79.82522568720799L584.88758275508,79.59061696275347L588.0871865994732,79.50392077018887L591.2867904438665,79.45190305465013L594.4863942882597,79.25866552914465L597.6859981326529,79.19661182580859L600.8856019770461,79.321406499989L604.7251265903179,79.2883254504224L607.9247304347111,79.2144077785751L611.1243342791045,79.11616836349913L614.3239381234977,79.00315567234611L617.5235419678909,78.93534805765466L620.7231458122841,79.00262134291438L623.9227496566773,78.98909650210271L627.1223535010705,78.92691255550841L630.3219573454637,78.88960218755153L633.5215611898569,78.86721596677774L636.7211650342501,78.90785327642084L640.560689647522,78.87816662009897L643.7602934919153,78.86035462630656L646.9598973363085,78.84966743003088L650.1595011807017,78.78936630029796L653.3591050250948,78.7531856224582L656.558708869488,78.78536602772186L659.7583127138813,78.75078545891273L662.9579165582745,78.83799497170219L666.1575204026677,78.83625163726828L669.3571242470609,78.7813168246409L672.5567280914541,78.80224474903167L676.396252704726,78.86887054577306L679.5958565491193,78.85477698171047L682.7954603935125,78.79243203130636L685.9950642379057,78.75502506106392L689.1946680822989,78.78646969088533L692.3942719266921,78.75144765681097L695.5938757710853,78.73043443636664L698.7934796154785,78.66375746199213L701.9930834598717,78.67782031947519L705.1926873042651,78.74014684593175L708.3922911486583,78.77754276180553L712.2318157619301,78.74609149936288L715.4314196063233,78.72722074189716L718.6310234507165,78.66182924531046L721.8306272951097,78.676663389466L725.0302311395029,78.68556387595936L728.2298349838961,78.74479297982225L731.4294388282893,78.6183035459581L734.6290426726825,78.54240988563942L737.8286465170758,78.49687368944825L741.028250361469,78.36159411765772L744.2278542058622,78.38838422865888L748.0673788191341,78.29650044118443L751.2669826635273,78.29543921080852L754.4665865079205,78.40276032665713L757.6661903523137,78.57511085024106L760.8657941967069,78.57056331031646L764.0653980411001,78.62190382846944L767.2650018854933,78.49068124317802L770.4646057298866,78.5199055460788L773.6642095742799,78.48337108571218L776.8638134186731,78.46145040949204L780.0634172630663,78.50236704586723" fill="none"></path></g></g></g></g><g opacity="0.2"><g><g><g><path style="fill: none;" stroke="rgb(0, 119, 187)" stroke-width="2px" d="M86.38930379861685,383.3694059502738L89.58890764301007,331.5338658570829L92.7885114874033,306.6954490635601L95.98811533179651,307.7754781796591L99.18771917618973,329.91359689525893L103.02724378946158,293.7369019717755L106.22684763385479,264.5788192892076L109.42645147824803,282.93751196148725L112.62605532264122,317.4948390738484L115.82565916703446,345.0326527945924L119.02526301142765,255.39969824074325L122.22486685582089,247.30015573302703L125.4244707002141,242.4407005736078L128.6240745446073,251.0800323516981L131.82367838900052,304.53584140671296L135.02328223339376,238.12103468456266L138.86280684666562,226.78185540390027L142.0624106910588,227.32209524962522L145.26201453545204,278.07805680206803L148.46161837984525,221.38261097410702L151.6612222242385,212.20303935029176L154.8608260686317,221.92240024448108L158.0604299130249,211.6632500799177L161.2600337574181,210.04343169344463L164.45963760181135,208.42361330697156L167.65924144620456,208.96340257734562L170.85884529059777,203.56370757220145L174.69836990386963,218.68276347153494L177.89797374826287,201.40409991535432L181.09757759265605,207.34358419087255L184.2971814370493,212.20303935029176L187.4967852814425,202.48412903145334L190.69638912583574,210.5832209638187L193.89599297022892,201.40409991535432L197.09559681462216,198.16446314240818L200.29520065901536,219.76234201228306L203.4948045034086,212.74327919601672L206.6944083478018,197.62422329668323L210.53393296107367,213.28306846639077L213.73353680546688,187.9048624024939L216.9331406498601,201.40409991535432L220.13274449425333,185.20546547527272L223.33234833864654,200.86386006962937L226.53195218303975,183.58564708879965L229.73155602743296,200.86386006962937L232.9311598718262,212.74327919601672L236.1307637162194,197.08443402630917L239.33036756061261,192.764768137264L242.52997140500582,196.5441941805842L246.3694960182777,189.52513136431787L249.5690998626709,196.5441941805842L252.7687037070641,186.28504401602083L255.96830755145734,178.18595208365548L259.1679113958506,187.36507313211985L262.3675152402438,187.9048624024939L265.567119084637,176.5661336971824L268.7667229290302,184.1254363591737L271.9663267734234,191.14494975079094L275.1659306178166,186.8252838617458L278.36553446220984,183.0454072430747L282.2050590754817,176.5661336971824L285.4046629198749,185.20546547527272L288.6042667642682,189.52513136431787L291.8038706086614,195.4646156398361L295.0034744530546,181.96537812697568L298.2030782974478,197.62422329668323L301.402682141841,182.50561797270063L304.6022859862342,201.94388918572838L307.80188983062743,188.98489151859292L311.00149367502064,180.88579958622756L314.2010975194139,187.9048624024939L318.0406221326857,182.50561797270063L321.240225977079,169.00638045984022L324.4398298214722,172.24646780813725L327.6394336658654,176.5661336971824L330.8390375102586,187.9048624024939L334.0386413546518,174.40607546498438L337.2382451990451,182.50561797270063L340.4378490434383,174.94631531070934L343.63745288783144,188.44510224821886L346.83705673222465,179.2659811997545L350.0366605766179,185.20546547527272L353.8761851898898,176.5661336971824L357.075789034283,198.70425241278224L360.2753928786762,177.64571223793052L363.4749967230694,183.58564708879965L366.6746005674626,182.50561797270063L369.8742044118559,181.96537812697568L373.0738082562491,181.96537812697568L376.2734121006423,199.2440416831563L379.4730159450355,180.88579958622756L382.6726197894287,183.58564708879965L385.87222363382193,171.7062279624123L389.7117482470938,173.32604634888537L392.911352091487,175.4861045810834L396.1109559358802,171.16643869203824L399.3105597802734,181.96537812697568L402.5101636246667,182.50561797270063L405.7097674690599,165.76674368689407L408.9093713134531,169.54662030556517L412.1089751578463,188.44510224821886L415.3085790022396,178.72574135402954L418.50818284663274,177.10592296755647L421.70778669102594,177.10592296755647L425.5473113042978,169.00638045984022L428.746915148691,166.8467728029931L431.9465189930843,163.06689618432205L435.1461228374775,162.527106913948L438.3457266818707,160.90728852747492L441.5453305262639,159.8272594113759L444.7449343706571,159.8272594113759L447.94453821505033,159.8272594113759L451.14414205944354,159.8272594113759L454.34374590383675,159.28747014100185L457.54334974823,160.90728852747492L461.3828743615019,163.06689618432205L464.5824782058951,160.90728852747492L467.7820820502883,160.36704868174996L470.9816858946815,161.98731764357393L474.18128973907466,156.58762263842976L477.380893583468,159.28747014100185L480.5804974278612,160.36704868174996L483.7801012722544,160.36704868174996L486.9797051166476,159.28747014100185L490.1793089610408,157.66765175452878L493.378912805434,159.28747014100185L497.21843741870595,158.7472302952769L500.41804126309916,160.36704868174996L503.61764510749236,160.36704868174996L506.8172489518855,159.8272594113759L510.0168527962787,159.8272594113759L513.2164566406719,158.20744102490283L516.4160604850651,161.44707779784898L519.6156643294584,159.28747014100185L522.8152681738517,160.36704868174996L526.0148720182449,159.8272594113759L529.2144758626381,159.28747014100185L533.0540004759099,157.12741190880382L536.2536043203031,158.20744102490283L539.4532081646963,158.7472302952769L542.6528120090895,158.7472302952769L545.8524158534829,157.66765175452878L549.0520196978761,160.90728852747492L552.2516235422693,160.90728852747492L555.4512273866625,158.20744102490283L558.6508312310557,157.66765175452878L561.8504350754489,157.12741190880382L565.050038919842,160.36704868174996L568.8895635331139,157.12741190880382L572.0891673775071,158.20744102490283L575.2887712219003,159.8272594113759L578.4883750662935,158.7472302952769L581.6879789106868,157.66765175452878L584.88758275508,159.28747014100185L588.0871865994732,158.7472302952769L591.2867904438665,160.90728852747492L594.4863942882597,161.44707779784898L597.6859981326529,159.28747014100185L600.8856019770461,162.527106913948L604.7251265903179,159.8272594113759L607.9247304347111,159.28747014100185L611.1243342791045,158.20744102490283L614.3239381234977,159.28747014100185L617.5235419678909,158.7472302952769L620.7231458122841,159.8272594113759L623.9227496566773,159.28747014100185L627.1223535010705,159.8272594113759L630.3219573454637,159.8272594113759L633.5215611898569,159.8272594113759L636.7211650342501,159.8272594113759L640.560689647522,159.28747014100185L643.7602934919153,158.20744102490283L646.9598973363085,158.20744102490283L650.1595011807017,158.20744102490283L653.3591050250948,158.7472302952769L656.558708869488,157.66765175452878L659.7583127138813,157.66765175452878L662.9579165582745,157.66765175452878L666.1575204026677,157.66765175452878L669.3571242470609,157.66765175452878L672.5567280914541,158.20744102490283L676.396252704726,157.66765175452878L679.5958565491193,157.66765175452878L682.7954603935125,157.12741190880382L685.9950642379057,158.7472302952769L689.1946680822989,158.7472302952769L692.3942719266921,158.7472302952769L695.5938757710853,157.66765175452878L698.7934796154785,157.66765175452878L701.9930834598717,157.66765175452878L705.1926873042651,157.66765175452878L708.3922911486583,157.66765175452878L712.2318157619301,157.66765175452878L715.4314196063233,157.12741190880382L718.6310234507165,158.20744102490283L721.8306272951097,157.66765175452878L725.0302311395029,158.20744102490283L728.2298349838961,158.20744102490283L731.4294388282893,157.66765175452878L734.6290426726825,157.66765175452878L737.8286465170758,157.66765175452878L741.028250361469,157.66765175452878L744.2278542058622,157.12741190880382L748.0673788191341,157.66765175452878L751.2669826635273,157.66765175452878L754.4665865079205,160.36704868174996L757.6661903523137,159.8272594113759L760.8657941967069,158.20744102490283L764.0653980411001,158.20744102490283L767.2650018854933,157.66765175452878L770.4646057298866,157.66765175452878L773.6642095742799,158.20744102490283L776.8638134186731,157.66765175452878L780.0634172630663,157.66765175452878" fill="none"></path></g><g><path style="fill: none;" stroke="rgb(255, 112, 67)" stroke-width="2px" d="M83.18969995422364,379.72470193687167L86.38930379861685,354.0770518131387L89.58890764301007,303.725706925801L92.7885114874033,281.85748284538823L95.98811533179651,264.84916449974554L99.18771917618973,304.26594677152593L103.02724378946158,268.3586959078787L106.22684763385479,240.9560547924037L109.42645147824803,248.65007948431304L112.62605532264122,276.323065810326L115.82565916703446,306.15565979318603L119.02526301142765,215.71302133377583L122.22486685582089,201.80916715581031L125.4244707002141,205.04880392875646L128.6240745446073,215.57784872850686L131.82367838900052,251.34992698688512L135.02328223339376,191.14494975079094L138.86280684666562,193.84479725336303L142.0624106910588,179.53587583494152L145.26201453545204,225.83699889307022L148.46161837984525,166.17181092735007L151.6612222242385,176.70085572710047L154.8608260686317,177.51099020801246L158.0604299130249,171.3016112973072L161.2600337574181,168.46659118946616L164.45963760181135,166.57687816780606L167.65924144620456,159.15229753573288L170.85884529059777,162.527106913948L174.69836990386963,176.9707503622875L177.89797374826287,153.88777513585768L181.09757759265605,158.47733566008986L184.2971814370493,155.10252628187476L187.4967852814425,151.72816747901055L190.69638912583574,162.39193430867903L193.89599297022892,151.1879276332856L197.09559681462216,146.19329986859742L200.29520065901536,164.68671457079512L203.4948045034086,154.42756440623174L206.6944083478018,144.30358684693732L210.53393296107367,162.79700154913502L213.73353680546688,135.79942767411598L216.9331406498601,144.57348148212435L220.13274449425333,131.34458917980186L223.33234833864654,132.96440756627493L226.53195218303975,131.34458917980186L229.73155602743296,148.62325273598248L232.9311598718262,144.30358684693732L236.1307637162194,132.15472366071384L239.33036756061261,129.04980891768577L242.52997140500582,138.90389184179315L246.3694960182777,132.6945129310879L249.5690998626709,139.8487483526232L252.7687037070641,120.41047713959546L255.96830755145734,113.52613635324724L259.1679113958506,128.9146363124168L262.3675152402438,135.52908246357805L265.567119084637,124.32507578818462L268.7667229290302,125.67499953947066L271.9663267734234,120.41047713959546L275.1659306178166,117.57545703175447L278.36553446220984,113.79603098843427L282.2050590754817,117.98052427221046L285.4046629198749,115.01078213445135L288.6042667642682,122.16546813133749L291.8038706086614,131.88437845017592L295.0034744530546,126.08006677992665L298.2030782974478,125.00003766382764L301.402682141841,113.12106911279125L304.6022859862342,127.29481792594373L307.80188983062743,115.5510219801763L311.00149367502064,125.1352102690966L314.2010975194139,114.33582025880833L318.0406221326857,119.73551526395244L321.240225977079,108.26161395337203L324.4398298214722,104.6169099399699L327.6394336658654,105.69648848071802L330.8390375102586,122.43536276652452L334.0386413546518,105.15669921034396L337.2382451990451,116.49587849100635L340.4378490434383,104.88680457515693L343.63745288783144,115.01078213445135L346.83705673222465,115.82091661536333L350.0366605766179,113.79603098843427L353.8761851898898,102.86191894822787L357.075789034283,120.68037177478249L360.2753928786762,104.88680457515693L363.4749967230694,100.56713868611178L366.6746005674626,109.47636509938911L369.8742044118559,109.74625973457614L373.0738082562491,103.40170821860193L376.2734121006423,113.25579114270931L379.4730159450355,98.00201321345776L382.6726197894287,113.12106911279125L385.87222363382193,103.40170821860193L389.7117482470938,106.23672832644297L392.911352091487,105.96638311590505L396.1109559358802,97.73211857827073L399.3105597802734,101.78188983212885L402.5101636246667,113.79603098843427L405.7097674690599,100.97220592656777L408.9093713134531,95.97757816187959L412.1089751578463,109.20647046420208L415.3085790022396,101.91706243739782L418.50818284663274,98.67697508910078L421.70778669102594,96.38219482698469L425.5473113042978,88.95806477026235L428.746915148691,86.79800653806433L431.9465189930843,85.85315002723428L435.1461228374775,84.77312091113527L438.3457266818707,82.88340788947517L441.5453305262639,83.28847512993116L444.7449343706571,82.20844601383214L447.94453821505033,82.7482352842062L451.14414205944354,82.07327340856318L454.34374590383675,82.34361861910111L457.54334974823,82.61351325428814L461.3828743615019,82.07327340856318L464.5824782058951,82.20844601383214L467.7820820502883,82.20844601383214L470.9816858946815,82.07327340856318L474.18128973907466,81.93855137864512L477.380893583468,80.31873299217204L480.5804974278612,80.04883835698502L483.7801012722544,80.8585222625461L486.9797051166476,81.2635895030021L490.1793089610408,80.8585222625461L493.378912805434,81.12841689773313L497.21843741870595,80.8585222625461L500.41804126309916,81.39876210827106L503.61764510749236,81.12841689773313L506.8172489518855,80.99369486781507L510.0168527962787,80.58862762735907L513.2164566406719,80.72380023262804L516.4160604850651,79.77849314644709L519.6156643294584,80.18356038690308L522.8152681738517,80.45345502209011L526.0148720182449,80.04883835698502L529.2144758626381,80.58862762735907L533.0540004759099,80.31873299217204L536.2536043203031,79.77849314644709L539.4532081646963,79.91366575171605L542.6528120090895,79.77849314644709L545.8524158534829,79.91366575171605L549.0520196978761,79.50859851126006L552.2516235422693,79.373876481342L555.4512273866625,79.373876481342L558.6508312310557,79.50859851126006L561.8504350754489,79.373876481342L565.050038919842,79.50859851126006L568.8895635331139,79.64377111652902L572.0891673775071,79.64377111652902L575.2887712219003,80.31873299217204L578.4883750662935,80.04883835698502L581.6879789106868,79.64377111652902L584.88758275508,79.23870387607303L588.0871865994732,79.373876481342L591.2867904438665,79.373876481342L594.4863942882597,78.968809240886L597.6859981326529,79.10353127080407L600.8856019770461,79.50859851126006L604.7251265903179,79.23870387607303L607.9247304347111,79.10353127080407L611.1243342791045,78.968809240886L614.3239381234977,78.83363663561704L617.5235419678909,78.83363663561704L620.7231458122841,79.10353127080407L623.9227496566773,78.968809240886L627.1223535010705,78.83363663561704L630.3219573454637,78.83363663561704L633.5215611898569,78.83363663561704L636.7211650342501,78.968809240886L640.560689647522,78.83363663561704L643.7602934919153,78.83363663561704L646.9598973363085,78.83363663561704L650.1595011807017,78.69891460569897L653.3591050250948,78.69891460569897L656.558708869488,78.83363663561704L659.7583127138813,78.69891460569897L662.9579165582745,78.968809240886L666.1575204026677,78.83363663561704L669.3571242470609,78.69891460569897L672.5567280914541,78.83363663561704L676.396252704726,78.968809240886L679.5958565491193,78.83363663561704L682.7954603935125,78.69891460569897L685.9950642379057,78.69891460569897L689.1946680822989,78.83363663561704L692.3942719266921,78.69891460569897L695.5938757710853,78.69891460569897L698.7934796154785,78.56374200043001L701.9930834598717,78.69891460569897L705.1926873042651,78.83363663561704L708.3922911486583,78.83363663561704L712.2318157619301,78.69891460569897L715.4314196063233,78.69891460569897L718.6310234507165,78.56374200043001L721.8306272951097,78.69891460569897L725.0302311395029,78.69891460569897L728.2298349838961,78.83363663561704L731.4294388282893,78.42856939516105L734.6290426726825,78.42856939516105L737.8286465170758,78.42856939516105L741.028250361469,78.15867475997402L744.2278542058622,78.42856939516105L748.0673788191341,78.15867475997402L751.2669826635273,78.29384736524298L754.4665865079205,78.56374200043001L757.6661903523137,78.83363663561704L760.8657941967069,78.56374200043001L764.0653980411001,78.69891460569897L767.2650018854933,78.29384736524298L770.4646057298866,78.56374200043001L773.6642095742799,78.42856939516105L776.8638134186731,78.42856939516105L780.0634172630663,78.56374200043001" fill="none"></path></g></g></g></g></g></g><g transform="translate(61, 377)" clip-path="url(#clip_1)"><clipPath id="clip_1"><rect width="831" height="22"></rect></clipPath><g><g><line x1="0" y1="0" x2="0" y2="5" style="visibility: inherit;" fill="rgb(0, 0, 0)" stroke="rgb(204, 204, 204)" stroke-width="1px"></line><line x1="63.992076887864336" y1="0" x2="63.992076887864336" y2="5" style="visibility: inherit;" fill="rgb(0, 0, 0)" stroke="rgb(204, 204, 204)" stroke-width="1px"></line><line x1="127.98415377572867" y1="0" x2="127.98415377572867" y2="5" style="visibility: inherit;" fill="rgb(0, 0, 0)" stroke="rgb(204, 204, 204)" stroke-width="1px"></line><line x1="191.97623066359301" y1="0" x2="191.97623066359301" y2="5" style="visibility: inherit;" fill="rgb(0, 0, 0)" stroke="rgb(204, 204, 204)" stroke-width="1px"></line><line x1="255.96830755145734" y1="0" x2="255.96830755145734" y2="5" style="visibility: inherit;" fill="rgb(0, 0, 0)" stroke="rgb(204, 204, 204)" stroke-width="1px"></line><line x1="319.9603844393217" y1="0" x2="319.9603844393217" y2="5" style="visibility: inherit;" fill="rgb(0, 0, 0)" stroke="rgb(204, 204, 204)" stroke-width="1px"></line><line x1="383.95246132718603" y1="0" x2="383.95246132718603" y2="5" style="visibility: inherit;" fill="rgb(0, 0, 0)" stroke="rgb(204, 204, 204)" stroke-width="1px"></line><line x1="447.94453821505033" y1="0" x2="447.94453821505033" y2="5" style="visibility: inherit;" fill="rgb(0, 0, 0)" stroke="rgb(204, 204, 204)" stroke-width="1px"></line><line x1="511.9366151029147" y1="0" x2="511.9366151029147" y2="5" style="visibility: inherit;" fill="rgb(0, 0, 0)" stroke="rgb(204, 204, 204)" stroke-width="1px"></line><line x1="575.928691990779" y1="0" x2="575.928691990779" y2="5" style="visibility: inherit;" fill="rgb(0, 0, 0)" stroke="rgb(204, 204, 204)" stroke-width="1px"></line><line x1="639.9207688786433" y1="0" x2="639.9207688786433" y2="5" style="visibility: inherit;" fill="rgb(0, 0, 0)" stroke="rgb(204, 204, 204)" stroke-width="1px"></line><line x1="703.9128457665076" y1="0" x2="703.9128457665076" y2="5" style="visibility: inherit;" fill="rgb(0, 0, 0)" stroke="rgb(204, 204, 204)" stroke-width="1px"></line><line x1="767.9049226543721" y1="0" x2="767.9049226543721" y2="5" style="visibility: inherit;" fill="rgb(0, 0, 0)" stroke="rgb(204, 204, 204)" stroke-width="1px"></line><line x1="831.8969995422364" y1="0" x2="831.8969995422364" y2="5" style="visibility: inherit;" fill="rgb(0, 0, 0)" stroke="rgb(204, 204, 204)" stroke-width="1px"></line></g><g transform="translate(0, 8)"><text style="text-anchor: middle; visibility: hidden; font-family: &quot;Helvetica Neue&quot;, sans-serif; font-size: 12px; font-weight: 200;" x="0" y="0" dx="0em" dy="0.95em" fill="rgb(50, 49, 63)" stroke="none" stroke-width="1px">-2k</text><text style="text-anchor: middle; visibility: inherit; font-family: &quot;Helvetica Neue&quot;, sans-serif; font-size: 12px; font-weight: 200;" x="63.992076887864336" y="0" dx="0em" dy="0.95em" fill="rgb(50, 49, 63)" stroke="none" stroke-width="1px">0</text><text style="text-anchor: middle; visibility: inherit; font-family: &quot;Helvetica Neue&quot;, sans-serif; font-size: 12px; font-weight: 200;" x="127.98415377572867" y="0" dx="0em" dy="0.95em" fill="rgb(50, 49, 63)" stroke="none" stroke-width="1px">2k</text><text style="text-anchor: middle; visibility: inherit; font-family: &quot;Helvetica Neue&quot;, sans-serif; font-size: 12px; font-weight: 200;" x="191.97623066359301" y="0" dx="0em" dy="0.95em" fill="rgb(50, 49, 63)" stroke="none" stroke-width="1px">4k</text><text style="text-anchor: middle; visibility: inherit; font-family: &quot;Helvetica Neue&quot;, sans-serif; font-size: 12px; font-weight: 200;" x="255.96830755145734" y="0" dx="0em" dy="0.95em" fill="rgb(50, 49, 63)" stroke="none" stroke-width="1px">6k</text><text style="text-anchor: middle; visibility: inherit; font-family: &quot;Helvetica Neue&quot;, sans-serif; font-size: 12px; font-weight: 200;" x="319.9603844393217" y="0" dx="0em" dy="0.95em" fill="rgb(50, 49, 63)" stroke="none" stroke-width="1px">8k</text><text style="text-anchor: middle; visibility: inherit; font-family: &quot;Helvetica Neue&quot;, sans-serif; font-size: 12px; font-weight: 200;" x="383.95246132718603" y="0" dx="0em" dy="0.95em" fill="rgb(50, 49, 63)" stroke="none" stroke-width="1px">10k</text><text style="text-anchor: middle; visibility: inherit; font-family: &quot;Helvetica Neue&quot;, sans-serif; font-size: 12px; font-weight: 200;" x="447.94453821505033" y="0" dx="0em" dy="0.95em" fill="rgb(50, 49, 63)" stroke="none" stroke-width="1px">12k</text><text style="text-anchor: middle; visibility: inherit; font-family: &quot;Helvetica Neue&quot;, sans-serif; font-size: 12px; font-weight: 200;" x="511.9366151029147" y="0" dx="0em" dy="0.95em" fill="rgb(50, 49, 63)" stroke="none" stroke-width="1px">14k</text><text style="text-anchor: middle; visibility: inherit; font-family: &quot;Helvetica Neue&quot;, sans-serif; font-size: 12px; font-weight: 200;" x="575.928691990779" y="0" dx="0em" dy="0.95em" fill="rgb(50, 49, 63)" stroke="none" stroke-width="1px">16k</text><text style="text-anchor: middle; visibility: inherit; font-family: &quot;Helvetica Neue&quot;, sans-serif; font-size: 12px; font-weight: 200;" x="639.9207688786433" y="0" dx="0em" dy="0.95em" fill="rgb(50, 49, 63)" stroke="none" stroke-width="1px">18k</text><text style="text-anchor: middle; visibility: inherit; font-family: &quot;Helvetica Neue&quot;, sans-serif; font-size: 12px; font-weight: 200;" x="703.9128457665076" y="0" dx="0em" dy="0.95em" fill="rgb(50, 49, 63)" stroke="none" stroke-width="1px">20k</text><text style="text-anchor: middle; visibility: inherit; font-family: &quot;Helvetica Neue&quot;, sans-serif; font-size: 12px; font-weight: 200;" x="767.9049226543721" y="0" dx="0em" dy="0.95em" fill="rgb(50, 49, 63)" stroke="none" stroke-width="1px">22k</text><text style="text-anchor: middle; visibility: hidden; font-family: &quot;Helvetica Neue&quot;, sans-serif; font-size: 12px; font-weight: 200;" x="831.8969995422364" y="0" dx="0em" dy="0.95em" fill="rgb(50, 49, 63)" stroke="none" stroke-width="1px">24k</text></g><line x1="0" y1="0" x2="831.8969995422364" y2="0" fill="rgb(0, 0, 0)" stroke="rgb(204, 204, 204)" stroke-width="1px"></line></g></g></g></g></svg>